<?xml version="1.0"?>
<svg xmlns="http://www.w3.org/2000/svg" id="line" viewBox="0 0 64 64"><path d="M17.9179,43.78875A6.10529,6.10529,0,0,0,14.14627,32.921c-5.72462-.06006-8.2628,7.43815-3.7709,10.86783A9.98425,9.98425,0,0,0,4,53.08192v3.89584a2.92717,2.92717,0,0,0,2.92359,2.92409h14.4456a2.92726,2.92726,0,0,0,2.92408-2.92409V53.08192A9.9845,9.9845,0,0,0,17.9179,43.78875Zm-3.77151-8.8676a4.09232,4.09232,0,0,1-.00006,8.18431A4.09232,4.09232,0,0,1,14.14639,34.92115ZM22.2931,56.97776a.9248.9248,0,0,1-.92391.92391H6.92359a.92438.92438,0,0,1-.92342-.92391V53.08192a8.00451,8.00451,0,0,1,8.31567-7.97629,7.9859,7.9859,0,0,1,7.97726,7.97629Z"/><path d="M53.46623,43.78875A6.1054,6.1054,0,0,0,49.69478,32.921c-5.72456-.06006-8.26274,7.43809-3.771,10.86777a9.984,9.984,0,0,0-6.37525,9.29311v3.89584a2.92717,2.92717,0,0,0,2.92359,2.92409H56.9177a2.92716,2.92716,0,0,0,2.92359-2.92409V53.08192A9.98425,9.98425,0,0,0,53.46623,43.78875Zm-3.77133-8.8676a4.09233,4.09233,0,0,1-.00006,8.18431A4.09233,4.09233,0,0,1,49.6949,34.92115Zm8.14622,22.05661a.92438.92438,0,0,1-.92342.92391H42.4721a.92438.92438,0,0,1-.92342-.92391V53.08192a8.148,8.148,0,0,1,16.29244,0Z"/><path d="M6.76538,29.1101H7.78549V32a1.00014,1.00014,0,0,0,1.56947.82234l5.36326-3.71224H16.776a1.00028,1.00028,0,0,0-.00006-2.00017H14.40569a.99717.99717,0,0,0-.56938.17775L9.78566,30.09163V28.11a.99982.99982,0,0,0-1.00009-1.00008H6.76538c-.41215,0-.76032-.50884-.76032-1.11045V14.8989c0-.60162.34817-1.11045.76032-1.11045H17.18621a1.0002,1.0002,0,0,0-.00006-2.00017H6.76538a2.91963,2.91963,0,0,0-2.7605,3.11062V25.99948A2.91963,2.91963,0,0,0,6.76538,29.1101Z"/><path d="M57.23951,11.78828H46.6087a1.00027,1.00027,0,0,0,.00006,2.00017H57.23951c.41214,0,.76032.50883.76032,1.11045V25.99948c0,.60161-.34818,1.11045-.76032,1.11045h-2.0202A.99982.99982,0,0,0,54.21922,28.11v1.98162l-4.05064-2.80395a.99836.99836,0,0,0-.56939-.17775H47.02865a1.00019,1.00019,0,0,0,.00007,2.00017h2.25794l5.36326,3.71224a1.0072,1.0072,0,0,0,1.56948-.8224V29.1101h1.02011A2.91963,2.91963,0,0,0,60,25.99948V14.8989A2.91963,2.91963,0,0,0,57.23951,11.78828Z"/><path d="M32.89559,11.40543a7.7327,7.7327,0,0,0-8.61831,8.618c.72309,6.21063,8.69656,8.95647,13.06016,4.44253C41.84607,20.1189,39.114,12.126,32.89559,11.40543ZM35.92319,23.052c-5.47752,5.14913-13.1942-2.57139-8.04312-8.04476C33.36389,9.854,41.07184,17.58633,35.92319,23.052Z"/><path d="M41.27766,30.77138l2.36593-2.36544a1.55852,1.55852,0,0,0,0-2.20234l-1.18076-1.18077a11.95992,11.95992,0,0,0,1.149-2.76391h1.66372a1.55972,1.55972,0,0,0,1.55727-1.55776V17.3581a1.55972,1.55972,0,0,0-1.55727-1.55775H43.61185a11.97747,11.97747,0,0,0-1.149-2.76392l1.18076-1.18076a1.55853,1.55853,0,0,0,0-2.20235l-2.365-2.36446a1.54407,1.54407,0,0,0-1.10215-.45707c-.86537-.10554-1.71853,1.15226-2.28193,1.63686a11.98636,11.98636,0,0,0-2.76392-1.14951V5.65591a1.55971,1.55971,0,0,0-1.55726-1.55776H30.22983a1.5982,1.5982,0,0,0-1.55727,1.74039v1.4806a11.97753,11.97753,0,0,0-2.76391,1.14951L24.72837,7.28886a1.59412,1.59412,0,0,0-2.20283-.001L20.15961,9.65332a1.55855,1.55855,0,0,0,0,2.20235l1.18077,1.18076a11.99583,11.99583,0,0,0-1.149,2.76392H18.52763a1.55971,1.55971,0,0,0-1.55726,1.55775v3.34306a1.55971,1.55971,0,0,0,1.55726,1.55776h1.66372a11.99575,11.99575,0,0,0,1.149,2.76391L20.15961,26.2036a1.55854,1.55854,0,0,0,0,2.20234l2.365,2.36446a1.59411,1.59411,0,0,0,2.20283.001l1.18126-1.18077a11.97888,11.97888,0,0,0,2.76391,1.14951v1.66324a1.55971,1.55971,0,0,0,1.55727,1.55775h3.34355a1.5982,1.5982,0,0,0,1.55726-1.74039v-1.4806a11.97742,11.97742,0,0,0,2.76392-1.14951l1.18076,1.18077a1.55736,1.55736,0,0,0,2.20234,0ZM39.0636,27.93129a1.55831,1.55831,0,0,0-1.91667-.2217,9.99472,9.99472,0,0,1-2.82544,1.17393,1.55854,1.55854,0,0,0-1.191,1.50892l-.002,1.56849H30.67274V30.39439a1.55937,1.55937,0,0,0-1.194-1.51087c-1.61562-.1208-3.36333-2.27675-4.73912-.95242l-1.113,1.11259-1.7399-1.73941,1.11289-1.1124a1.5556,1.5556,0,0,0,.22219-1.91619,9.9968,9.9968,0,0,1-1.17442-2.82544,1.55772,1.55772,0,0,0-1.51038-1.19151H18.97054V17.80052h1.56655A1.55833,1.55833,0,0,0,22.048,16.60706c.12019-1.6169,2.27528-3.36211.95187-4.73967l-1.113-1.11241,1.7399-1.73941L24.7396,10.128a1.55715,1.55715,0,0,0,1.91667.22169,9.98481,9.98481,0,0,1,2.822-1.173,1.55645,1.55645,0,0,0,1.19444-1.5099l.00195-1.56849h2.45578V7.66487a1.556,1.556,0,0,0,1.194,1.51087c1.61525.1208,3.36443,2.27688,4.73912.95236l1.11295-1.11253,1.7399,1.73941c-.80146.82307-2.12915,1.7352-1.335,3.02859a9.99508,9.99508,0,0,1,1.17387,2.82349,1.55687,1.55687,0,0,0,1.51087,1.19346h1.56654v2.45822H43.26612a1.55688,1.55688,0,0,0-1.51087,1.19347,10.00633,10.00633,0,0,1-1.17345,2.82348,1.55487,1.55487,0,0,0,.2217,1.91619l1.11289,1.1124-1.7399,1.73941Z"/><path d="M8.82806,17.62863l5.17037.08985a1.00035,1.00035,0,0,0,.0351-2.00017l-5.17031-.08985a1.00024,1.00024,0,1,0-.03516,2.00017Z"/><path d="M8.84564,21.46881h5.12007a1.00009,1.00009,0,0,0,0-2.00018H8.84564A1.00028,1.00028,0,0,0,8.84564,21.46881Z"/><path d="M8.84564,25.309h6.9005a1.00028,1.00028,0,0,0-.00006-2.00018H8.84564A1.00028,1.00028,0,0,0,8.84564,25.309Z"/><path d="M54.96,15.62846c-.00531-.00733-5.18887.09461-5.1987.08985a1.00024,1.00024,0,0,0,.03516,2.00017l5.18063-.08985A1.00053,1.00053,0,0,0,54.96,15.62846Z"/><path d="M54.95952,19.46863H49.82919a1.00028,1.00028,0,0,0,.00006,2.00018h5.13027A1.00028,1.00028,0,0,0,54.95952,19.46863Z"/><path d="M47.04868,24.3089A.99982.99982,0,0,0,48.04876,25.309h6.91076a1.00009,1.00009,0,0,0,0-2.00018H48.04876A.99982.99982,0,0,0,47.04868,24.3089Z"/></svg>
