<?xml version="1.0"?>
<svg xmlns="http://www.w3.org/2000/svg" viewBox="0 0 32 32"><title/><g data-name="Layer 2" id="Layer_2"><path d="M12,6H5A3,3,0,0,0,2,9v7a3,3,0,0,0,3,3H8a6.783,6.783,0,0,1-2,4.586A2,2,0,0,0,7.414,27,7.6,7.6,0,0,0,15,19.414V9A3,3,0,0,0,12,6Zm1,13.414A5.592,5.592,0,0,1,7.414,25,8.768,8.768,0,0,0,10,18.758V18a1,1,0,0,0-1-1H5a1,1,0,0,1-1-1V9A1,1,0,0,1,5,8h7a1,1,0,0,1,1,1Z"/><path d="M27,6H20a3,3,0,0,0-3,3v7a3,3,0,0,0,3,3h3a6.783,6.783,0,0,1-2,4.586A2,2,0,0,0,22.414,27,7.6,7.6,0,0,0,30,19.414V9A3,3,0,0,0,27,6Zm1,13.414A5.592,5.592,0,0,1,22.414,25,8.768,8.768,0,0,0,25,18.758V18a1,1,0,0,0-1-1H20a1,1,0,0,1-1-1V9a1,1,0,0,1,1-1h7a1,1,0,0,1,1,1Z"/></g></svg>
