<svg xmlns="http://www.w3.org/2000/svg" width="2273.505" height="816.814" viewBox="0 0 2273.505 816.814">
  <g id="Group_504" data-name="Group 504" transform="translate(7287.047 -456.846)">
    <path id="Exclusion_2" data-name="Exclusion 2" d="M150.25,238.031a4.817,4.817,0,0,1-3.559-1.095c-1.088-1.1-1.068-2.891-1.046-4.787v-.019c0-.256.006-.52.006-.781.01-17,.01-34,.01-51.99q0-4.755-.024-9.234c-.027-7.869-.052-15.3.063-22.756.032-2.238-.375-3.709-1.281-4.629s-2.307-1.332-4.442-1.332h-.036c-18.788.076-33.278.109-46.983.109-15.56,0-29.624-.045-43-.139h-.123c-2.114,0-3.575.438-4.466,1.339-1.275,1.29-1.252,3.386-1.227,5.605,0,.309.007.629.007.946v.033c.01,25.54.02,51.95-.02,77.946,0,.681.017,1.349.037,2.057a22.28,22.28,0,0,1-.978,8.653l-12.716,0h-.7l-12.344,0c-4.8,0-9.035,0-12.945,0a4.475,4.475,0,0,1-3.379-1.074,3.96,3.96,0,0,1-.871-3.056c.066-1.529.04-3.084.016-4.588-.013-.791-.026-1.608-.026-2.413,0-15.131.012-30.445.023-45.255C.29,134.8.328,86.444,0,38.869A22.034,22.034,0,0,1,2.289,28.224a22.535,22.535,0,0,1,7.043-7.705,84.2,84.2,0,0,1,15.6-8.971,101.236,101.236,0,0,1,17-5.709A208.889,208.889,0,0,1,65.67,1.473,194.13,194.13,0,0,1,89.389,0a188.29,188.29,0,0,1,25.674,1.763,192.483,192.483,0,0,1,25.618,5.356c4.356,1.225,8.643,2.831,12.261,4.24a68.269,68.269,0,0,1,13.8,7.123A48.775,48.775,0,0,1,177.3,28.125a44.471,44.471,0,0,1,7.021,12.4,55.135,55.135,0,0,1,3.2,15.386c.231,3.363.58,6.771.916,10.067a174.342,174.342,0,0,1,1.2,17.823c-.051,35.43-.043,71.456-.035,106.3v.01c0,12.659.006,25.749.006,38.666,0,.551-.01,1.113-.02,1.657-.02,1.1-.04,2.229.02,3.343a4.036,4.036,0,0,1-.877,3.125,4.352,4.352,0,0,1-3.3,1.075c-2.777,0-5.6-.015-8.33-.025h-.008c-3.694-.014-7.514-.028-11.281-.028-5.951,0-10.835.036-15.37.114ZM86.674,15.931c-11.119,0-22.926,1.73-38.282,5.609-3.556.9-4.271,3.258-4.271,6.78.073,36.63.067,64.68-.02,90.949-.005,2.278.395,3.7,1.3,4.6.876.878,2.267,1.288,4.377,1.288h.075c14.508-.058,29.64-.087,44.976-.087,14.434,0,29.565.026,44.975.077h.088c2.276,0,3.7-.413,4.6-1.338.882-.9,1.272-2.3,1.229-4.422-.14-6.774-.113-13.53-.084-20.683v-.022c.012-3,.025-6.1.025-9.264a204.09,204.09,0,0,0-.946-21.95c-.235-2.93-.478-5.959-.654-8.93-1.164-19.8-11.806-32.89-31.63-38.92A87.288,87.288,0,0,0,86.674,15.931Z" transform="translate(-6428.911 793.641)" fill="#1177b1"/>
    <path id="Exclusion_1" data-name="Exclusion 1" d="M109.748,241.941a218.988,218.988,0,0,1-31.8-2.287,207.093,207.093,0,0,1-31.8-7.287,91.336,91.336,0,0,1-25.62-12.73A40.9,40.9,0,0,1,9.9,208.609a38.43,38.43,0,0,1-5.437-14.4A325.106,325.106,0,0,1,.4,151.977c-.513-13.7-.44-27.313-.3-42.41.1-11.31.384-20.653.882-29.4C1.588,69.57,2.51,59.974,3.8,50.827A45.517,45.517,0,0,1,6.656,40.034a39.726,39.726,0,0,1,5.1-8.979A50.513,50.513,0,0,1,27.983,17.546,113.117,113.117,0,0,1,49.574,8.424,163.031,163.031,0,0,1,72.4,3.217,251.737,251.737,0,0,1,111.89,0,224.077,224.077,0,0,1,141.7,1.976a215.723,215.723,0,0,1,29.6,6.13,99.456,99.456,0,0,1,28.14,12.56A45.947,45.947,0,0,1,206.96,26.8a39.592,39.592,0,0,1,5.633,7.243,40.812,40.812,0,0,1,3.818,8.366,49.745,49.745,0,0,1,2.072,9.5c1.89,15.551,3.025,31.5,3.47,48.77.39,15.038.339,29.812-.15,43.912-.518,14.93-1.548,29.676-3.06,43.829a51.653,51.653,0,0,1-2.494,11.418,41.763,41.763,0,0,1-4.812,9.661,42.6,42.6,0,0,1-7.109,8.049,54.2,54.2,0,0,1-9.384,6.581,112.442,112.442,0,0,1-22.026,9.36,161.9,161.9,0,0,1-23.324,5.25c-6.749,1.044-13.461,1.841-19.95,2.37C122.928,241.664,116.235,241.941,109.748,241.941Zm.131-226.28a93.545,93.545,0,0,0-38.467,7.976c-15.609,6.971-23.884,18.469-25.3,35.15-2.19,25.743-2.822,53.318-1.99,86.78.062,2.518.089,5.086.116,7.569.092,8.741.188,17.778,1.8,27.181-.018,19.415,9.149,32.03,28.85,39.7a83.06,83.06,0,0,0,19.25,5.07,138.4,138.4,0,0,0,18.176,1.267c16.224,0,30.265-3.388,42.924-10.357,11.8-6.5,18.311-15.682,19.9-28.08,3.117-24.315,3.529-48.388,3.52-68.729-.017-19.347-.469-42.284-3.69-65.71-1.439-10.522-6.735-18.749-16.19-25.15-8.549-5.786-18.909-9.505-31.67-11.37A120.019,120.019,0,0,0,109.879,15.661Z" transform="translate(-5619.583 789.013)" fill="#2abaeb"/>
    <path id="Path_24" data-name="Path 24" d="M756.315,1619c11.3-.54,21.41-2.37,30.765-7.22,11.953-6.19,19.662-15.35,21.537-29.23a230.561,230.561,0,0,0-.182-64.71c-1.728-11.78-8.024-20.15-17.9-26.28-9.313-5.77-19.658-8.26-30.36-8.97-15.066-1-29.879,1.08-44.519,4.75-4.271,1.07-6.278,2.96-5.961,7.51.3,4.31.059,8.66.059,12.99q0,92.46,0,184.92c0,2.33-.125,4.67.019,7,.2,3.32-1.142,4.88-4.548,4.87-11.661-.06-23.323-.04-34.985-.02-2.846,0-4.3-1.25-4.18-4.21.079-1.99-.007-4-.007-5.99,0-63.31.168-126.62-.211-189.92-.048-8.05,2.657-13.15,8.8-17.56a90.523,90.523,0,0,1,30.674-14.13c33.939-8.66,67.863-8.6,101.652.98a89.978,89.978,0,0,1,26.255,11.93c9.218,6.26,15.154,14.54,17.567,25.64,4.8,22.09,5.178,44.36,2.616,66.61-2.585,22.44-14.989,37.98-36.107,46.31-5.553,2.19-11.2,4.13-17.735,6.52,16.168,24.38,32.077,48.36,48.95,73.8-16.921,0-32.156.02-47.391-.01-4.17-.01-5.262-3.68-7.017-6.34q-21.215-32.085-42.273-64.29c-2.875-4.37-5.744-8.76-9.731-14.84C747.7,1619.11,751.565,1619.11,756.315,1619Z" transform="translate(-7615 -673)" fill="#1177b1"/>
    <path id="Path_25" data-name="Path 25" d="M1125.15,1693.15c-16.6,9.47-34.12,13.35-52.18,14.57-26.79,1.82-53.28.18-78.622-9.85-14.238-5.63-22.056-11.64-27.989-21.12,1.96-2.92,5.3-3.89,8.12-5.55,8.066-4.75,8.091-4.68,15.179,1.99a43.739,43.739,0,0,0,11.452,7.94,118.544,118.544,0,0,0,75.97,8.74,47.613,47.613,0,0,0,24.29-13.13c11.07-11.07,12.79-25.94,4.54-39.25-4.29-6.92-10.2-12.25-16.87-16.79-9.73-6.6-20.44-11.12-31.59-14.67-15.24-4.85-30.18-10.46-44.33-18-10.94-5.83-21.2-12.63-29.521-21.94-13.277-14.86-18.854-31.91-13.852-51.69,3.378-13.35,11.973-22.82,23.215-30.1,12.8-8.3,27.068-12.68,41.978-15.13,30.1-4.93,59.73-3.28,88.61,7,9.09,3.23,17.78,7.31,24.72,14.25-1.39,3.35-4.32,4.49-6.67,6.21-8.1,5.92-8.12,5.86-16.71.26a38.321,38.321,0,0,0-5.17-3.02c-25.1-11.32-51.11-14.09-77.97-7.9a46.817,46.817,0,0,0-19.47,9.8c-12.6,10.46-15.01,25.41-6.31,39.29,5.65,9,13.87,15.18,22.95,20.31,8.14,4.61,16.87,7.85,25.78,10.67,13.96,4.42,27.79,9.2,40.98,15.68,10.21,5.03,19.87,10.88,28.14,18.78,15.57,14.87,21.84,32.98,18.53,54.33C1149.72,1671.83,1140.09,1683.94,1125.15,1693.15Z" transform="translate(-7615 -673)" fill="#1177b1"/>
    <path id="Path_26" data-name="Path 26" d="M1852.97,1596.85c-17.14-6.07-32.9-13.25-46.93-23.63-15.55-11.5-26.8-25.81-28.35-46.09-1.32-17.3,4.99-31.3,18.03-42.34,10.64-9,23.19-14.23,36.63-17.5,34.21-8.32,68.03-7.2,101.28,4.63,8.73,3.1,17.25,6.88,24.57,14.32-3.76,4.63-9.01,6.93-13.22,10.41-2.44,2.01-4.18.32-6.16-1.02-25.51-17.32-53.8-19.83-83.28-15.13a49.99,49.99,0,0,0-23.4,10.69c-12.45,9.93-15.24,24.6-7.17,38.32,4.13,7.01,9.98,12.44,16.65,17a110.509,110.509,0,0,0,28.75,13.72c14.57,4.72,29.19,9.34,43.01,16.05,13.57,6.58,26.17,14.45,36.1,26.2,19.24,22.73,21.51,67.32-17.45,87.85-15.04,7.92-31.26,11.49-47.92,12.88-23.03,1.92-45.97.79-68.34-5.66-12.89-3.72-25.2-8.77-35.01-18.4-6.49-6.37-6.38-6.93,1.14-11.34a40.951,40.951,0,0,0,4.35-2.45c4.49-3.53,8.05-3.42,11.52,1.68,2.44,3.57,6.25,6.11,10.12,8.01,27.01,13.28,55.07,17.15,84.3,8.57a43.968,43.968,0,0,0,17.94-10.55c11.96-11.37,13.79-27.05,4.75-40.82-5.62-8.56-13.53-14.58-22.27-19.66C1880.41,1605.5,1866.93,1601.64,1852.97,1596.85Z" transform="translate(-7615 -673)" fill="#2abaeb"/>
    <path id="Path_27" data-name="Path 27" d="M2324.93,1462.78c26.21-1.31,51.53-.52,76.83-.65,6.55-.03,6.63.36,6.65,7.92.02,7.61-.11,8.02-6.47,8.07-18.65.14-37.3.12-55.95.05a183.961,183.961,0,0,0-40.6,4.33c-8.93,1.98-8.89,2.45-8.8,11.31.2,19.31.19,38.62.3,57.94.05,10.16.07,10.2,10.6,10.21,21.98.03,43.96-.03,65.94.08,2.74.01,6.62-1.48,7.79,2.36a19.4,19.4,0,0,1-.13,11.82c-.88,2.57-3.98,1.85-6.23,1.86-10.66.05-21.32.02-31.97.03-11.99,0-23.98-.04-35.97.01-9.93.04-10.01.08-10.02,9.81-.05,29.97.05,59.94-.07,89.91-.03,7.19,2.73,16.33-2.23,20.97-4.53,4.24-13.39,1.03-20.33,1.29-5.32.2-10.66-.09-15.98.07-3.87.12-5.47-1.57-5.29-5.34.09-1.99-.02-3.99-.02-5.99,0-62.27.22-124.55-.23-186.82-.07-9.59,3.34-15.64,10.81-20.68,15.32-10.36,32.65-14.58,50.56-17.2C2317.41,1463.66,2320.72,1463.31,2324.93,1462.78Z" transform="translate(-7615 -673)" fill="#2abaeb"/>
    <path id="Path_28" data-name="Path 28" d="M2566,1466.24c8.65,0,16.31-.01,23.97,0,11.54.01,11.54.01,11.48,8.16-.06,7.62-.06,7.64-11,7.65-11.66.01-23.31-.05-34.96.02-9.15.05-9.25.12-9.26,9.52q-.045,97.89-.03,195.77c-.02,14.56,1.54,12.63-12.78,12.77-8.66.08-17.32-.07-25.97.03-3.75.04-5.55-1.43-5.37-5.28.13-2.66,0-5.32,0-7.99q0-95.88-.02-191.77c-.02-14.96,1.63-12.91-13.51-13.05-9.65-.09-19.31-.01-28.96-.02-11.86-.01-11.86-.01-11.91-7.66-.06-8.13-.06-8.15,11.44-8.15C2494.42,1466.23,2529.71,1466.24,2566,1466.24Z" transform="translate(-7615 -673)" fill="#2abaeb"/>
    <path id="Path_29" data-name="Path 29" d="M1519.9,1508.37c-12.34-2.15-23.89-2.39-35.94,1.77a22.427,22.427,0,0,0-5.48,1.53c-.53.48-.48.33-.4.35-26.57,11.49-46.7,29.35-56.3,57.54-1.04,3.06-1.19,6.6-5.01,8.59-4.74-35.64,4.79-66.07,33.92-88.45,35.64-27.38,85.75-23.62,117.52,8.31,2.32,2.33,4.64,4.65,6.87,6.88,3.19-.63,4.35-3.28,6.13-5.16,26.29-27.77,58.18-37.09,94.47-25.55,36.05,11.46,56.17,37.77,61.49,74.99,1.35,9.46.36,19.26.24,29.81-3.14.47-3.59-2.05-4.16-4.19-8.84-33.55-31-54.44-63.46-66.48-13.86-3.96-27.06-4.72-41.16-.55-18,6.8-34.21,15.05-46.4,29.39-5.85,6.88-10.6,3.53-14.84-1.35-10.86-12.49-25.05-19.5-40.1-25.26A53.343,53.343,0,0,0,1519.9,1508.37Z" transform="translate(-7615 -673)" fill="#05adee"/>
    <path id="Path_30" data-name="Path 30" d="M887.5,1590c0-37.32,0-73.64,0-109.96,0-2.33.058-4.67.012-7-.065-3.2.9-4.97,4.649-4.44,10.544,1.51,21.1,2.98,31.689,4.11,5.478.59,6.9,3.26,6.834,8.48-.251,21.33-.1,42.65-.1,63.98q0,73.47,0,146.95c0,2.33-.174,4.67.016,6.99.385,4.7-2.263,5.45-6.151,5.4-10.328-.13-20.666-.27-30.986.05-5.154.17-6.047-2.17-6.017-6.6.145-20.99.061-41.98.06-62.98C887.5,1620.32,887.5,1605.66,887.5,1590Z" transform="translate(-7615 -673)" fill="#0d74b0"/>
    <path id="Path_31" data-name="Path 31" d="M1669.61,1508.58c18.91,2.04,33.89,12.76,46.25,26.83a90.4,90.4,0,0,1,20.95,43.89,120.111,120.111,0,0,1,.89,13.53q.045,83.355-.02,166.7c0,2.83.72,5.81-.84,8.74-3.71-.76-5.71-3.55-7.95-5.82-17.67-17.96-26.29-39.65-26.31-64.78-.04-44.92-.25-89.84.05-134.76C1702.8,1538.05,1692.28,1520.2,1669.61,1508.58Z" transform="translate(-7615 -673)" fill="#0877a8"/>
    <path id="Path_32" data-name="Path 32" d="M1519.76,1508.58c15.7.46,29.32,7.56,41.54,17.74,3.57,2.97,6.61,6.55,9.98,9.76,4.78,4.55,4.6,4.32,9.01-.5,12.55-13.72,27.01-24.4,46.7-27.67-.59,2.04-3.07,2.43-5.04,3.6-18.03,10.73-27.77,26.41-27.88,47.5-.23,43.91-.2,87.83-.28,131.75,0,2.32-.13,4.66.02,6.98.26,3.88-1.52,5.35-5.29,5.3q-12.465-.18-24.95-.01c-3.78.05-5.44-1.48-5.29-5.33.17-4.32.03-8.65.03-12.98-.01-39.92-.63-79.86.17-119.77C1559.07,1535.9,1541.08,1515.46,1519.76,1508.58Z" transform="translate(-7615 -673)" fill="#1177b1"/>
    <path id="Path_33" data-name="Path 33" d="M1415.89,1578.76c4.58-12.35,8.08-24.51,15.97-34.47,11.83-14.95,25.03-28.2,45.52-32.3.08,2.13-1.83,2.96-3.42,4.1-16.05,11.52-23.79,27.21-23.82,46.9q-.12,64.335-.34,128.69c-.01,2.33-.13,4.66,0,6.98.23,3.91-1.65,5.26-5.37,5.18-6.65-.13-13.31.01-19.96-.03-8.78-.06-8.86-.09-8.89-8.55-.06-16.63-.02-33.26-.01-49.89.01-19.95.03-39.91.2-61.49C1415.86,1581.32,1415.8,1580.38,1415.89,1578.76Z" transform="translate(-7615 -673)" fill="#0877a8"/>
    <path id="Path_34" data-name="Path 34" d="M491.173,1216.54c19.964-1.62,31.272,5.86,34.938,22.26a29.517,29.517,0,0,1-21.333,35.3,40.943,40.943,0,0,1-6.578,1.14c-16.652-2.25-27.32-12.33-28.594-26.45C468.2,1233.22,475.606,1221.93,491.173,1216.54Z" transform="translate(-7615 -673)" fill="#70cff5"/>
    <path id="Path_35" data-name="Path 35" d="M423.594,1288.33a2.087,2.087,0,0,1,1.573-.54,6.022,6.022,0,0,0,1.865-.62c19.559-.92,32.752,10.38,33.192,27.79.482,19.02-10.973,30.6-31.584,30.93-2.287-1.33-4.107-.7-6.255-1.47-.551-.32-.4-.35-.414-.27-19.972-11.41-24.661-29.3-12.509-46.25,2.515-3.51,5.723-5.34,9.891-7.6.578-.55.631-.4.552-.41C420.839,1289.21,422.03,1289.06,423.594,1288.33Z" transform="translate(-7615 -673)" fill="#70cff5"/>
    <path id="Path_36" data-name="Path 36" d="M571.272,1164.49c6.291-.97,11.894-1.39,17.353.85,12.922,5.31,19.133,16.76,17.474,32.42-1.17,11.06-11.817,21.86-23.723,23.87a39.367,39.367,0,0,1-7.8.02c-1.7-.49-2.6-.74-4.133-1.23-.614-.33-.47-.37-.465-.29-13.061-5.78-20.72-16.79-20.237-29.02C550.209,1179.35,558.576,1168.86,571.272,1164.49Z" transform="translate(-7615 -673)" fill="#70cff5"/>
    <path id="Path_37" data-name="Path 37" d="M461.232,1396.45c17.328,4.76,26.086,16.7,23.577,31.11a27.259,27.259,0,0,1-29.159,22.96c-13.4-.97-24.654-12.91-25-26.52-.344-13.52,10.04-25.6,23.815-27.57A43.605,43.605,0,0,1,461.232,1396.45Z" transform="translate(-7615 -673)" fill="#2ab8e9"/>
    <path id="Path_38" data-name="Path 38" d="M375.207,1374.68c11.8-2.46,22.019-.64,29.678,8.28,7.8,9.08,9.415,19.79,4.7,30.76-4.576,10.65-12.917,16.6-24.858,16.74-1.659.01-3.32-.04-5.845-.23-13.072-3.77-20.965-11.69-22.552-24.36-1.4-11.17,1.907-20.96,13.02-27.56.562-.56.526-.39.464-.45A23.619,23.619,0,0,1,375.207,1374.68Z" transform="translate(-7615 -673)" fill="#70cff5"/>
    <path id="Path_39" data-name="Path 39" d="M328.775,1497.92c.939-11.44,5.47-19.82,15.323-24.81a26.411,26.411,0,0,1,29.753,3.83c8.767,7.62,11.883,19.25,7.986,29.79-3.971,10.74-12.8,16.67-24.276,17.56C343.99,1525.35,330.447,1515.79,328.775,1497.92Z" transform="translate(-7615 -673)" fill="#70cff5"/>
    <path id="Path_40" data-name="Path 40" d="M446.96,1484.71c10.417,8.54,13.477,18.86,9.605,30.78a26.712,26.712,0,0,1-33.646,16.96c-13.936-4.56-21.85-19.57-17.589-33.38,4.53-14.67,19.115-22.58,33.86-18.2C441.694,1481.61,443.975,1483.11,446.96,1484.71Z" transform="translate(-7615 -673)" fill="#2ab8e9"/>
    <path id="Path_41" data-name="Path 41" d="M505.635,1376.1c-16.881,2.16-32.179-14.68-28.035-32.13,2.95-12.41,13.252-20.82,25.837-20.72,12.8.09,23.579,8.54,26.161,20.51a26.52,26.52,0,0,1-15.441,30.32C511.756,1375.1,509.046,1375.4,505.635,1376.1Z" transform="translate(-7615 -673)" fill="#2ab8e9"/>
    <path id="Path_42" data-name="Path 42" d="M450.629,1598.8c-1.821,14.77-17.944,25.73-33.24,21.15-11.647-3.49-20.159-15.74-18.912-27.33,1.423-13.2,12.06-23.5,25-24.2a26.4,26.4,0,0,1,26.578,19.79A21.358,21.358,0,0,1,450.629,1598.8Z" transform="translate(-7615 -673)" fill="#2ab8e9"/>
    <path id="Path_43" data-name="Path 43" d="M663.283,1134.69c15.284-1.22,25.752,4.88,30.357,17.19a27.859,27.859,0,0,1-8.975,31.95c-4.6,3.68-10.072,4.65-16.342,5.53-2.3-.54-3.923-.23-5.969-.98-.51-.31-.372-.35-.364-.28-1.967-1.86-5.108-1.22-7.606-3.56-.52-.41-.4-.54-.436-.46-15.484-11.83-15.881-29.49-.521-45.63.525-.59.572-.47.508-.49,1.463-1.28,3.411-.71,5.583-1.68.467-.49.458-.34.385-.36A9.506,9.506,0,0,1,663.283,1134.69Z" transform="translate(-7615 -673)" fill="#70cff5"/>
    <path id="Path_44" data-name="Path 44" d="M460.224,1670.19c5.634,10.58,4.414,20.03-2.614,28.39-5.97,7.1-14.034,9.69-23.247,7.89a23.686,23.686,0,0,1-19.212-20.18,24.605,24.605,0,0,1,11.5-24.62,23.917,23.917,0,0,1,27.828,2.05C456.489,1665.39,458.061,1667.59,460.224,1670.19Z" transform="translate(-7615 -673)" fill="#2ab8e9"/>
    <path id="Exclusion_6" data-name="Exclusion 6" d="M22.75,80.589a22.2,22.2,0,0,1-12.714-3.55A16.144,16.144,0,0,1,5.827,72.8a17.292,17.292,0,0,1-2.47-5.71l-.049-.208c-.377-1.588-.768-3.229,1.128-4.072a4.984,4.984,0,0,1,1.988-.426,4.3,4.3,0,0,1,2.742.976,5.5,5.5,0,0,1,1.147,1.485,10.669,10.669,0,0,0,.593.906c.277.366.549.751.812,1.123A15.7,15.7,0,0,0,14,69.628a13.868,13.868,0,0,0,9.163,3.559,12.349,12.349,0,0,0,11.647-7.859,22.973,22.973,0,0,0,1.06-14.96,4.733,4.733,0,0,0-1.3-.2,4.088,4.088,0,0,0-2.773,1.278,8.057,8.057,0,0,1-.9.694,20.3,20.3,0,0,1-10.757,3.414c-5.548,0-10.546-2.875-14.452-8.314a28.782,28.782,0,0,1-4.122-8.695A39.145,39.145,0,0,1,.011,28.41,39.345,39.345,0,0,1,1.078,18.2,29.215,29.215,0,0,1,4.786,9.267C8.746,3.118,13.664,0,19.4,0,24.031,0,29.143,2.045,34.6,6.078c1.578-.16,1.774-1.255,1.963-2.313a4.743,4.743,0,0,1,.377-1.347A3.362,3.362,0,0,1,40.155.456a8.574,8.574,0,0,1,1.962.271c1.976.467,2,2.347,2.02,4.006v.035c.024,2.937.022,5.915.021,8.795v.054q0,1.071,0,2.141c0,4.188,0,8.423,0,12.519v.006c0,9.322,0,18.961-.039,28.445a28.4,28.4,0,0,1-2.647,12.619,24.5,24.5,0,0,1-9.143,9.912A37.553,37.553,0,0,1,22.75,80.589ZM22.076,7.994c-5.718,0-10.134,3.459-12.769,10-2.049,5.088-1.8,10.276-.8,16.5.255.689.465,1.306.668,1.9a16.424,16.424,0,0,0,1.461,3.477c2.1,3.381,5.553,7.877,11.327,7.877a12.3,12.3,0,0,0,1.523-.1c7.18-.912,10.358-6.426,11.76-10.89a28.339,28.339,0,0,0-.28-18.64c-2.507-6.575-6.524-9.885-12.281-10.12C22.482,8,22.277,7.994,22.076,7.994Z" transform="translate(-5998.707 1142.813)" fill="#207fb5"/>
    <path id="Path_46" data-name="Path 46" d="M471.8,1593.44c-2.537-6.55-2.624-12.44-.576-18.29a24.043,24.043,0,0,1,23.967-16.06c10.831.72,20.011,8.13,22.534,18.2a24.213,24.213,0,0,1-11.591,27.34c-9.527,5.31-21.035,4.1-28.675-3.31C475.343,1599.28,473.867,1596.57,471.8,1593.44Z" transform="translate(-7615 -673)" fill="#229bd5"/>
    <path id="Exclusion_8" data-name="Exclusion 8" d="M22.642,81.655c-5.49,0-10.516-2.281-14.94-6.779a17.055,17.055,0,0,1-4.44-7.71c-.421-1.578-.9-3.367,1.11-4.25a5.475,5.475,0,0,1,2.163-.474,3.588,3.588,0,0,1,2.557.974,14.877,14.877,0,0,1,2.008,2.63,19.191,19.191,0,0,0,1.541,2.14,13.166,13.166,0,0,0,10.251,4.852,16.858,16.858,0,0,0,4.239-.573c4.857-1.267,7.8-4.981,8.751-11.039.6-3.856,1.222-7.844-.53-13.01a31.278,31.278,0,0,1-6.8,5.343,15.763,15.763,0,0,1-7.789,2.123,18.044,18.044,0,0,1-6.731-1.406,20.108,20.108,0,0,1-7.879-6.558,30.492,30.492,0,0,1-4.705-9.931A40.025,40.025,0,0,1,.267,22.664,30.793,30.793,0,0,1,5.091,8.9C9.123,2.993,14,0,19.6,0c4.485,0,9.41,1.936,14.639,5.755h.04c1.65,0,1.932-1.129,2.206-2.222a3.061,3.061,0,0,1,.965-1.9,6,6,0,0,1,3.367-1.2,3.31,3.31,0,0,1,2.408.949,4.454,4.454,0,0,1,1.125,3.249c-.018,5.7.076,11.506.166,17.117.211,13.059.429,26.562-.747,39.8a22.971,22.971,0,0,1-4.332,12.06A20.139,20.139,0,0,1,28.7,80.755,21.722,21.722,0,0,1,22.642,81.655ZM22.233,8.121c-5.458,0-9.919,3.266-12.562,9.195a25.705,25.705,0,0,0-1.8,12.669c.718,9.757,6.943,17.62,14.17,17.9.155.006.31.009.463.009a10.642,10.642,0,0,0,8.33-4.031c2.325-2.717,4.138-6.814,5.387-12.178.238-5.452.444-10.162-1.679-14.51-3-6.13-6.689-8.921-11.97-9.05C22.459,8.122,22.345,8.121,22.233,8.121Z" transform="translate(-5848.762 1142.714)" fill="#38bfec"/>
    <path id="Path_48" data-name="Path 48" d="M527.6,1666.76c-4.264,16.35-20.192,21.4-30.514,18.18-12.212-3.8-19.226-15.22-17-28.03,1.981-11.38,12.574-19.91,24.327-19.57a23.975,23.975,0,0,1,23.542,22.64A47.53,47.53,0,0,1,527.6,1666.76Z" transform="translate(-7615 -673)" fill="#229bd5"/>
    <path id="Path_49" data-name="Path 49" d="M513.171,1527.81c-17.07,7.41-32.694-5.67-33.674-19.38-.822-11.49,5.768-21.83,16.63-25.33a24.3,24.3,0,0,1,27.619,10.49,23.7,23.7,0,0,1-4.19,29.93A40.571,40.571,0,0,1,513.171,1527.81Z" transform="translate(-7615 -673)" fill="#229bd5"/>
    <path id="Path_50" data-name="Path 50" d="M1269.18,1827.5c-3.52,5.05-3.44,10.07-3.44,15.08,0,8-.04,15.99,0,23.99.01,2.37-.85,3.78-3.37,3.9-2.82.13-4.3-.92-4.27-4q.135-12.495-.04-24.99a35.545,35.545,0,0,0-.93-8.88c-1.61-5.92-5.34-8.73-10.66-8.75-5.37-.02-8.86,2.79-10.63,8.72a36.862,36.862,0,0,0-1.22,10.88c.05,7.33.02,14.66-.01,21.98-.01,2.32.34,4.83-3.18,5.06-3.99.26-4.1-2.29-4.09-5.17.03-14.66-.11-29.32.08-43.97.07-5.66,2.02-6.45,7.12-2.68,1.61,1.18,2.3,1.45,4.06.68,12.65-5.56,14.99-5.05,24.96,4.9,1.57.01,2.27-1.21,3.09-2.21,4.46-5.4,10.19-7.67,16.91-5.81,7.19,1.99,10.88,7.64,12.04,14.58.87,5.21.69,10.61.79,15.93.12,6.33.01,12.66.03,18.99.02,2.47-.05,4.73-3.46,4.77-3.15.04-3.93-1.72-3.91-4.46.06-6.66.08-13.32-.02-19.98a72.618,72.618,0,0,0-.65-10.95C1286.53,1824.1,1280.08,1821.32,1269.18,1827.5Z" transform="translate(-7615 -673)" fill="#207fb5"/>
    <path id="Path_51" data-name="Path 51" d="M328.328,1591.28a25.876,25.876,0,0,1,6.2-10.99c8.524-8.8,19.53-10.33,29.915-4a24.016,24.016,0,0,1,10.145,29.5c-3.9,9.82-15.767,16.9-25.545,15.24-12.21-2.07-20.527-11.1-21.071-22.97A56.285,56.285,0,0,1,328.328,1591.28Z" transform="translate(-7615 -673)" fill="#70cff5"/>
    <path id="Path_52" data-name="Path 52" d="M541.289,1714.19c12.825,7.94,17.1,18.12,13.013,29.55a23.555,23.555,0,1,1-20.52-31.33C536.068,1712.59,538.307,1713.4,541.289,1714.19Z" transform="translate(-7615 -673)" fill="#229bd5"/>
    <path id="Path_53" data-name="Path 53" d="M2284.15,1834.15c0-4.98-.02-8.98.03-12.98.03-1.99.01-4.21,2.62-4.67,2-.35,4.12-.38,4.86,2.16.56,1.96,1.04,2.48,3.24,1.3,12.54-6.7,14.63-6.3,25.01,3.75a17.118,17.118,0,0,0,2.34,1.18c1.02-1.46,2.02-3.74,3.72-5.18,8.3-7.07,19.21-4.9,24.49,4.62a22.845,22.845,0,0,1,2.96,10.49c.23,10.33.18,20.66.26,31,.02,2.51-.27,4.7-3.53,4.84-3.87.18-4.16-2.31-4.15-5.24.05-7.67-.01-15.33.01-23,.01-4.03-.26-7.98-1.9-11.75-1.93-4.43-5.15-6.83-10.06-6.77-5,.06-8.07,2.9-9.77,7.23-1.48,3.76-1.54,7.81-1.52,11.83.03,7.67-.02,15.34-.01,23,.01,2.6-.55,4.68-3.73,4.71-3.06.03-4-1.79-4-4.5q0-12-.05-24c-.02-4.01-.13-8.05-1.84-11.76-1.79-3.89-4.61-6.5-9.21-6.52-4.82-.01-8.24,2.05-10.24,6.53a25.384,25.384,0,0,0-1.83,10.75c.01,8.33-.06,16.66,0,24.99.02,2.75-.76,4.52-3.88,4.51s-3.84-1.84-3.83-4.55C2284.19,1855.79,2284.15,1845.46,2284.15,1834.15Z" transform="translate(-7615 -673)" fill="#38bfec"/>
    <path id="Path_54" data-name="Path 54" d="M757.485,1130.45c8.423-1.54,15.564-.28,21.647,5.5,14.4,13.69,9.651,35.91-9.187,42.25a35.689,35.689,0,0,1-7.5,1.3,42.745,42.745,0,0,1-10.015-3.04c-.557-.34-.421-.43-.46-.36-15.7-11.09-17.1-28.86-2.67-41.74.622-.52.677-.36.62-.42C751.886,1132.05,754.316,1131.18,757.485,1130.45Z" transform="translate(-7615 -673)" fill="#70cff5"/>
    <path id="Path_55" data-name="Path 55" d="M559.427,1266.61c15.224-2.81,27.38,4.38,30.338,17.38,3.327,14.62-4.424,26.7-20.274,30.34a14.167,14.167,0,0,1-7.216.17c-.881-.36-1.577-.12-1.9-.3-9.189-3.53-15.715-9.01-16.751-19.07-1.106-10.73.235-20.55,11.726-26.8.608-.55.606-.39.531-.41A10.984,10.984,0,0,1,559.427,1266.61Z" transform="translate(-7615 -673)" fill="#2abaeb"/>
    <path id="Path_56" data-name="Path 56" d="M520.339,1453.86c-2.441-1.81-4.445-3.1-5.958-4.82a22.362,22.362,0,0,1-1.438-28.47,22.66,22.66,0,0,1,40.3,18.51c-2.584,10.52-11.629,17.44-22.676,17.46A21.043,21.043,0,0,1,520.339,1453.86Z" transform="translate(-7615 -673)" fill="#229bd5"/>
    <path id="Path_57" data-name="Path 57" d="M1429.37,1859.59c-.73,3.04-1.27,5.3-1.75,7.58-.63,2.92-2.74,3.42-5.28,3.35-2.24-.06-3.67-.91-4.26-3.26-3.89-15.48-7.88-30.93-11.75-46.41-.49-1.97-.57-4.11,2.33-4.43,2.65-.29,4.52.63,5.14,3.45,1.42,6.5,2.72,13.03,4.33,19.47,1.36,5.42,1.67,11.16,4.75,17.03,3.9-8.91,4.51-17.84,6.88-26.28.9-3.2,1.56-6.47,2.17-9.74.51-2.7,1.93-3.97,4.73-4.07,2.97-.1,4.22,1.58,4.76,4.06,1.56,7.14,3.02,14.31,4.57,21.46.83,3.79,1.75,7.56,2.61,11.23,4.27-.19,3.63-3.29,4.1-5.16,1.94-7.73,3.54-15.55,5.29-23.34.44-1.94.88-3.89,1.46-5.79.75-2.46,2.82-2.69,4.85-2.32,2.88.52,2.33,2.77,1.87,4.68-2.11,8.73-4.29,17.44-6.47,26.15-1.45,5.8-2.88,11.62-4.48,17.38-.76,2.72-.83,5.94-5.24,5.98-4.33.04-4.72-2.9-5.38-5.78-1.79-7.77-3.41-15.59-5.26-23.35-.5-2.09-.51-4.56-3.4-6.35C1432.15,1842.73,1431.73,1851.04,1429.37,1859.59Z" transform="translate(-7615 -673)" fill="#207fb5"/>
    <path id="Exclusion_3" data-name="Exclusion 3" d="M3.72,80.54a3.648,3.648,0,0,1-2.611-.824,3.524,3.524,0,0,1-.942-2.61c-.027-.918-.041-1.9-.041-2.991q0-7.352,0-14.7v-.076C.116,42.275.109,24.633.187,7.286c0-.465-.043-.952-.091-1.468-.2-2.129-.4-4.33,2.681-5.1A5.715,5.715,0,0,1,4.144.529C6.332.529,6.957,2.3,7.561,4.005a11.334,11.334,0,0,0,.786,1.87,2.751,2.751,0,0,0,1.1.256,3.239,3.239,0,0,0,2.221-1.268,7.109,7.109,0,0,1,.895-.8A20.378,20.378,0,0,1,24.213,0a15.63,15.63,0,0,1,8.119,2.277,21.91,21.91,0,0,1,6.846,6.758,28.573,28.573,0,0,1,3.865,9.053,39.4,39.4,0,0,1,1.1,10.456,39.376,39.376,0,0,1-1.623,10.387,28.523,28.523,0,0,1-4.314,8.845c-3.873,5.2-8.769,7.956-14.159,7.956a19.86,19.86,0,0,1-10.311-3.177,8.552,8.552,0,0,1-1-.75,5.817,5.817,0,0,0-4.167-1.652l-.164,0C7.115,53.537,7.25,57.2,7.392,61.074A63.918,63.918,0,0,1,7.4,67.815c0,.89-.006,1.723-.009,2.515v.014c-.009,2.339-.016,4.36,0,6.351.011,2.573-1.041,3.757-3.41,3.84C3.89,80.538,3.8,80.54,3.72,80.54ZM21.907,8.1c-5.227,0-9.214,2.711-11.85,8.055a25.623,25.623,0,0,0-1.57,19.26c2.282,7.674,6.561,11.9,12.051,11.9,3.678,0,7.816-1.947,11.969-5.631,4.913-8.562,5.416-16.854,1.54-25.35-2.385-5.222-6.234-7.988-11.44-8.22C22.372,8.1,22.137,8.1,21.907,8.1Z" transform="translate(-6307.777 1142.694)" fill="#207fb5"/>
    <path id="Path_59" data-name="Path 59" d="M605.553,1694.23c2.048,11.32-1.088,19.87-10.654,25.3a21.562,21.562,0,0,1-28.923-7.3,21.9,21.9,0,0,1,35.461-25.61C603.062,1688.67,604.062,1691.21,605.553,1694.23Z" transform="translate(-7615 -673)" fill="#1577b0"/>
    <path id="Path_60" data-name="Path 60" d="M567.1,1821.48c-15.057-11.66-15.166-29.95-.9-38.27a21.943,21.943,0,0,1,31.484,27.16,22.171,22.171,0,0,1-21.266,13.6A23.451,23.451,0,0,1,567.1,1821.48Z" transform="translate(-7615 -673)" fill="#229bd5"/>
    <path id="Path_61" data-name="Path 61" d="M641.764,1750.86c5.093,17.25-3.613,30.74-19.292,31.08-9.97.22-17.917-5.43-21.1-15.01a21.715,21.715,0,0,1,34.337-23.62A23.14,23.14,0,0,1,641.764,1750.86Z" transform="translate(-7615 -673)" fill="#1577b0"/>
    <path id="Path_62" data-name="Path 62" d="M489.4,1750.54c11.182,11.42,5.538,30.81-8.9,35.32-9.309,2.92-19.015-.04-24.623-7.93a22.015,22.015,0,0,1,.544-25.97,21.492,21.492,0,0,1,25.007-6.78A22.215,22.215,0,0,1,489.4,1750.54Z" transform="translate(-7615 -673)" fill="#2ab8e9"/>
    <path id="Path_63" data-name="Path 63" d="M544.42,1645.37a22.3,22.3,0,0,1-3.441-11.06,21.452,21.452,0,0,1,40.039-11.46,21.491,21.491,0,0,1-36.6,22.52Z" transform="translate(-7615 -673)" fill="#1577b0"/>
    <path id="Path_64" data-name="Path 64" d="M689.562,1796.5c6.764,11.79,6.133,21.41-1.387,28.75a21.166,21.166,0,1,1-6.318-34.49A20.121,20.121,0,0,1,689.562,1796.5Z" transform="translate(-7615 -673)" fill="#1577b0"/>
    <path id="Exclusion_7" data-name="Exclusion 7" d="M8.679,69.269c-4.454,0-6.5-1.055-7.555-3.894C.045,62.465.045,57.745.045,49.925V19.951c0-1.729.016-3.346.031-4.909.031-3.161.06-6.147-.062-9.06-.1-2.305.283-3.821,1.194-4.77A4.775,4.775,0,0,1,4.831,0c.264,0,.545.01.834.031,1.086.08,2.254.118,3.675.118.952,0,1.922-.017,2.86-.033h.064C13.18.1,14.128.082,15.061.082c.576,0,1.1.006,1.593.018,7.4.179,13.536,2.161,18.232,5.891s7.991,9.234,9.809,16.369a50.145,50.145,0,0,1-.32,25.709,27.088,27.088,0,0,1-8.381,13.94,27.549,27.549,0,0,1-15.019,6.17A120.262,120.262,0,0,1,8.679,69.269Zm5.89-61.532h0l-.554,0c-2.874.034-4.549.512-5.6,1.6-1,1.035-1.438,2.7-1.381,5.24.253,12.03.256,25.111.01,39.99C7,57.439,7.428,59.122,8.481,60.2c1.017,1.039,2.674,1.53,5.214,1.543h.345c12.123,0,19.144-4.512,22.766-14.631a39,39,0,0,0,1.14-20.521C35.276,13.376,28.286,7.738,14.571,7.738Z" transform="translate(-5919.805 1129.159)" fill="#2abaeb"/>
    <path id="Path_66" data-name="Path 66" d="M635.409,1226.64c17.467-1.51,27.905,8,26.847,23.76-.757,11.28-8,18.28-21.47,19.81a11.992,11.992,0,0,1-2.394.19c-.537-.35-1.46-.06-1.912-.23-9.5-3.36-15.7-9.22-16.784-19.06-1.06-9.6,2.017-17.5,11.67-22.78.6-.53.6-.38.529-.4A10.082,10.082,0,0,1,635.409,1226.64Z" transform="translate(-7615 -673)" fill="#2abaeb"/>
    <path id="Exclusion_12" data-name="Exclusion 12" d="M20.106,56.231a14.655,14.655,0,0,1-7.431-2.011,19.734,19.734,0,0,1-6.3-6.062A37.844,37.844,0,0,1,1.726,39,32.405,32.405,0,0,1,.015,29.555,36.172,36.172,0,0,1,1.1,19.818,49.739,49.739,0,0,1,4.845,9.788a40.805,40.805,0,0,1,7.924-7.375A13.133,13.133,0,0,1,20.189,0a17.482,17.482,0,0,1,6.829,1.6,53.972,53.972,0,0,1,8.4,4.72c.223-.459.413-.96.6-1.444A6.627,6.627,0,0,1,37.575,2.1,5.31,5.31,0,0,1,40.96.691c2.09,0,3.519,1.611,3.555,4.008.223,15.753.226,31.492.01,46.779a4.053,4.053,0,0,1-1.09,2.871,3.513,3.513,0,0,1-2.527,1.022,5.06,5.06,0,0,1-3.452-1.522,6.269,6.269,0,0,1-1.317-2.9c-.133-.489-.271-1-.444-1.444a4.668,4.668,0,0,0-3.13,1.742,8.244,8.244,0,0,1-1.08.968,23.765,23.765,0,0,1-5.732,3.006A17.06,17.06,0,0,1,20.106,56.231ZM22.653,8.409c-.159,0-.32,0-.478.01-5.811.235-9.913,3.405-12.54,9.69-1.8,4.318-1.736,8.864-1.5,13.53.221.809.413,1.579.6,2.322a23.384,23.384,0,0,0,2.052,6c3.131,5.467,6.894,8.124,11.5,8.125.378,0,.766-.018,1.155-.054,5.384-.488,9.482-3.94,11.54-9.72a29.294,29.294,0,0,0-.11-20.46C32.677,12.026,27.994,8.409,22.653,8.409Z" transform="translate(-5252.935 1142.451)" fill="#38bfec"/>
    <path id="Exclusion_9" data-name="Exclusion 9" d="M20.791,55.993a16.623,16.623,0,0,1-7.246-1.669A18.854,18.854,0,0,1,7.275,49.4a26.736,26.736,0,0,1-5.81-11.21A44.9,44.9,0,0,1,.07,24.681a32.765,32.765,0,0,1,3.285-12.52,24.253,24.253,0,0,1,7.116-9.072A15.147,15.147,0,0,1,19.65,0c3.922,0,8.018,1.437,12.175,4.271A5.741,5.741,0,0,0,34.7,5.554c1.183,0,1.709-1.24,2.378-3.133A2.773,2.773,0,0,1,40.034.554a11.119,11.119,0,0,1,2.221.287c1.951.422,2.219,2.133,2.219,3.92.027,13.3.033,27.411.02,45.76a6.554,6.554,0,0,1-.462,2.849A2.883,2.883,0,0,1,41.6,54.921a9.078,9.078,0,0,1-1.21.088,3.481,3.481,0,0,1-3.66-2.4,9.573,9.573,0,0,1-.272-.946,3.48,3.48,0,0,0-1.519-2.5,29.848,29.848,0,0,0-3.2,2.382,18.546,18.546,0,0,1-5.71,3.589A16.444,16.444,0,0,1,20.791,55.993ZM22.058,8.151h0c-4.729,0-9.086,2.871-11.653,7.679-2.313,4.331-3.1,9.4-2.39,15.49a22.248,22.248,0,0,0,4.612,11.311,13.491,13.491,0,0,0,8.759,5.289,11,11,0,0,0,1.2.067,10.285,10.285,0,0,0,7.663-3.579c2.26-2.414,4.22-6.111,5.828-10.988.585-7.028.771-12.831-2.53-18.21C30.791,10.725,26.6,8.152,22.059,8.152Z" transform="translate(-5748.805 1142.659)" fill="#38bfec"/>
    <path id="Path_69" data-name="Path 69" d="M595.94,1375.11c-1.175,3.23-1.892,5.89-3.36,8.04a20.293,20.293,0,0,1-24.812,7.11,20.55,20.55,0,0,1-11.686-23.95c2.13-8.87,10.772-15.6,19.774-15.4,10.363.23,18.586,7.28,20.129,17.41A38.6,38.6,0,0,1,595.94,1375.11Z" transform="translate(-7615 -673)" fill="#229bd5"/>
    <path id="Path_70" data-name="Path 70" d="M540.122,1554.29c4.8-7.11,10.727-10.74,18.775-10.27a20.2,20.2,0,0,1,19.133,21.24c-.54,11.24-9.679,19.54-21.132,19.18a19.761,19.761,0,0,1-19.269-20.92A17.753,17.753,0,0,1,540.122,1554.29Z" transform="translate(-7615 -673)" fill="#1577b0"/>
    <path id="Exclusion_10" data-name="Exclusion 10" d="M20.905,56.046h0a16.964,16.964,0,0,1-8.707-2.52A23.3,23.3,0,0,1,4.73,46.093a28.339,28.339,0,0,1-3.654-8.83A40.216,40.216,0,0,1,.009,27.02,40.173,40.173,0,0,1,1.5,16.834,28.255,28.255,0,0,1,5.52,8.172C9.266,2.9,14.484,0,20.213,0A19.982,19.982,0,0,1,30.879,3.292a27.115,27.115,0,0,1,2.634,1.961c.356.288.691.561,1.016.809,1.854-.286,2.047-1.393,2.233-2.464a3.335,3.335,0,0,1,.487-1.467A3.46,3.46,0,0,1,40.241.687a8.415,8.415,0,0,1,1.448.145c2.512.438,2.73,2.421,2.741,4.59.028,5.735.031,11.484.034,17.57,0,2.38,0,4.816.005,7.33,0,1.965.009,3.839.017,5.651.02,4.273.039,8.306-.067,12.28-.011.5.024,1.039.059,1.563.158,2.412.321,4.907-3.579,5.217-.26.02-.479.03-.67.03-1.945,0-2.507-1.048-4.27-5.93h-.1a4.547,4.547,0,0,0-3.306,1.732,17.366,17.366,0,0,1-5.523,3.9A15.206,15.206,0,0,1,20.905,56.046ZM22.334,8.2c-.454,0-.923.022-1.395.066-5.455.515-9.536,3.977-11.49,9.751a28.946,28.946,0,0,0,.5,20.48c2.372,5.8,6.459,9.055,11.82,9.42.276.018.552.027.822.027,6.19,0,9.6-4.855,11.618-8.507,3.494-6.305,2.719-13.249,1.5-19.211-.278-.638-.517-1.209-.749-1.762a26.532,26.532,0,0,0-1.652-3.5C30.63,10.472,26.938,8.2,22.334,8.2Z" transform="translate(-5581.739 1142.647)" fill="#38bfec"/>
    <path id="Exclusion_5" data-name="Exclusion 5" d="M21.261,56.118a18.514,18.514,0,0,1-9.405-2.6A21.506,21.506,0,0,1,4.245,45.7,30.915,30.915,0,0,1,.054,31.386a55.33,55.33,0,0,1,1.682-15.45,24.636,24.636,0,0,1,5.17-9.33,19.7,19.7,0,0,1,6.765-4.958A19.216,19.216,0,0,1,36.606,7.4a26.021,26.021,0,0,1,4.67,9.83c1.615,6.223,2.158,9.742.645,11.7-1.476,1.911-4.972,2.279-10.905,2.289-2,0-4.028.011-5.991.022s-3.991.022-5.986.022c-2.237,0-4.194-.015-5.983-.044h-.174c-1.865,0-3.121.438-3.84,1.338-.749.937-.894,2.358-.445,4.343,1.312,5.781,4.417,9.418,9.229,10.81a13.018,13.018,0,0,0,3.6.536,11.322,11.322,0,0,0,8.915-4.506c.314-.377.6-.795.875-1.2a8.768,8.768,0,0,1,1.6-1.921,5.917,5.917,0,0,1,3.644-1.436,3.96,3.96,0,0,1,2.746,1.076c1.529,1.4.486,3-.435,4.423-.2.308-.388.6-.545.877a21.121,21.121,0,0,1-7.523,7.92A18.355,18.355,0,0,1,21.261,56.118ZM20.761,7.9c-4.635,0-8.186,2.445-10.856,7.474a12.463,12.463,0,0,0-1.28,7.5A38.118,38.118,0,0,0,20.814,24.5c1.227,0,2.466-.024,3.664-.048s2.415-.048,3.64-.048c.9,0,1.715.013,2.478.041.109,0,.216.006.319.006a3.45,3.45,0,0,0,2.6-.843,3.289,3.289,0,0,0,.728-2.523c-.231-5.714-5.274-11.858-10.58-12.89A15.37,15.37,0,0,0,20.761,7.9Z" transform="translate(-6143.556 1142.524)" fill="#207fb5"/>
    <path id="Path_73" data-name="Path 73" d="M720.186,1859.46c-4.934-6.74-5.635-13.44-2.776-20.34a19.415,19.415,0,0,1,25.7-10.32,19.755,19.755,0,0,1-15.242,36.45A20.043,20.043,0,0,1,720.186,1859.46Z" transform="translate(-7615 -673)" fill="#1577b0"/>
    <path id="Path_74" data-name="Path 74" d="M655.753,1851.79c1.552,9.03-1.057,15.78-7.968,20.64a19.512,19.512,0,0,1-26.651-4.2,19.57,19.57,0,0,1,30.141-24.9A21.33,21.33,0,0,1,655.753,1851.79Z" transform="translate(-7615 -673)" fill="#229bd5"/>
    <path id="Path_75" data-name="Path 75" d="M350.838,1689.55c8.209-15.91,22.6-19.28,33.208-8.47,6.335,6.46,7.759,15.27,3.7,22.88a20.234,20.234,0,0,1-21.761,10.28,19.5,19.5,0,0,1-15.692-17.02C350.041,1694.95,350.465,1692.6,350.838,1689.55Z" transform="translate(-7615 -673)" fill="#70cff5"/>
    <path id="Path_76" data-name="Path 76" d="M853.076,1150.77c11.924-.14,19.586,4.75,22.414,13.66a22.269,22.269,0,0,1-6.828,23.56c-4.4,3.6-9.488,4.57-15.8,4.09-1.692-1.01-2.885-1.09-4.492-1.68-.5-.29-.364-.36-.4-.29-13.649-6.62-15.8-27.16-2.637-35.76.589-.52.679-.38.612-.43.92-.74,2.128-.85,3.627-1.69.4-.43.4-.28.332-.3A7.834,7.834,0,0,1,853.076,1150.77Z" transform="translate(-7615 -673)" fill="#70cff5"/>
    <path id="Path_77" data-name="Path 77" d="M1187.35,1859.36c0-17.24-.06-33.56.03-49.87.04-7.11.18-7.18,7.08-7.28,5.99-.09,11.99.02,17.98-.01,2.33-.02,3.8.78,3.91,3.33.12,2.81-.89,4.35-3.99,4.28-4.32-.11-8.66.07-12.98.01-3.31-.04-4.91,1.39-4.72,4.76.07,1.33-.01,2.66-.03,4-.19,13.2-.19,13.2,12.77,13.8a29.081,29.081,0,0,1,3.97.25c1.95.36,2.6,1.79,2.55,3.64s-.75,3.29-2.75,3.41c-2.99.18-5.99.13-8.98.22-7.29.21-7.5.22-7.52,6.99-.06,19.55-1.39,16.41,15.39,16.48,1,.01,1.99.03,2.99.05,2.56.05,3.43,1.52,3.31,3.88-.09,1.94-.93,3.16-2.97,3.17-7.65.02-15.31.03-22.97-.02-1.97-.02-2.95-1.24-3-3.17C1187.36,1864.95,1187.37,1862.62,1187.35,1859.36Z" transform="translate(-7615 -673)" fill="#207fb5"/>
    <path id="Exclusion_4" data-name="Exclusion 4" d="M21.847,55.964h0c-.113,0-.224,0-.338,0A19.471,19.471,0,0,1,9.875,52.142,24.534,24.534,0,0,1,2.517,42.27a36.875,36.875,0,0,1-1.305-3.682l-.005-.016c-.082-.257-.168-.527-.26-.812a65.869,65.869,0,0,1-.926-12.05A31.989,31.989,0,0,1,2.3,14.441,24.441,24.441,0,0,1,10.181,3.793,19.336,19.336,0,0,1,21.807,0h.121A19.476,19.476,0,0,1,33.521,3.758a21.456,21.456,0,0,1,4.506,4.5,26.134,26.134,0,0,1,3.34,6.079,35.7,35.7,0,0,1,.26,26.27,25.061,25.061,0,0,1-8.011,11.1A19.148,19.148,0,0,1,21.847,55.964ZM21.735,7.82h-.079c-5.807.031-10.585,3.76-12.469,9.73a36.5,36.5,0,0,0-1.209,7.53c-.095,1.014-.193,2.063-.321,3.17.092.93.161,1.8.228,2.636a29.761,29.761,0,0,0,.892,6.135c2,6.73,5.734,10.367,11.4,11.12a10.217,10.217,0,0,0,1.339.088c5.136,0,10.192-3.8,12.581-9.458a27.411,27.411,0,0,0-.16-22.33C31.456,10.72,27.351,7.82,21.735,7.82Z" transform="translate(-6257.497 1142.639)" fill="#207fb5"/>
    <path id="Path_79" data-name="Path 79" d="M2089.09,1843.98c.01-8.32-.15-15.65.09-22.98.14-4.45,3.4-6.64,6.28-3.85,3.02,2.92,4.4,2.05,7.39.58,9.71-4.79,18.77-1.16,22.75,8.78a22.914,22.914,0,0,1,1.87,7.73c.27,10.66.19,21.32.31,31.98.03,2.78-.86,4.48-3.94,4.45-3.17-.04-3.75-2-3.74-4.64.04-7.66.05-15.33-.03-22.99a46.672,46.672,0,0,0-.63-8.94c-1.45-6.95-5.62-10.45-11.53-10.2-5.4.23-9.14,3.76-10.28,10.36a71.377,71.377,0,0,0-.72,10.95c-.12,6.99-.07,13.99-.07,20.99,0,2.7-.88,4.55-3.97,4.48-3.15-.06-3.76-2.12-3.76-4.72C2089.12,1858.96,2089.1,1851.97,2089.09,1843.98Z" transform="translate(-7615 -673)" fill="#38bfec"/>
    <path id="Exclusion_11" data-name="Exclusion 11" d="M22.15,56.183a17.525,17.525,0,0,1-2.036-.119A20.1,20.1,0,0,1,8.391,50.836,25.105,25.105,0,0,1,1.9,39.794,39.7,39.7,0,0,1,.046,25.984a34.109,34.109,0,0,1,3.527-13.45A24.2,24.2,0,0,1,10.9,3.449,18.587,18.587,0,0,1,22,0c.145,0,.293,0,.44,0a19.811,19.811,0,0,1,11.275,3.5,23.424,23.424,0,0,1,7.435,9.256,33.475,33.475,0,0,1,1.8,5.2c.2.7.411,1.418.648,2.192,1.609,8.624.907,15.7-2.21,22.27C37.355,50.911,29.981,56.183,22.15,56.183ZM22.129,8.057c-7.664,0-11.781,5.03-13.765,16.817q0,.379-.009.753v.009c-.072,5.88-.134,10.958,2.58,15.608,2.667,4.561,6.6,7.177,10.8,7.177,3.493,0,6.871-1.724,9.77-4.987,4.187-4.716,5.829-10.823,5.02-18.67-1.04-10.1-6.37-16.5-13.91-16.7C22.451,8.06,22.288,8.057,22.129,8.057Z" transform="translate(-5411.924 1142.526)" fill="#38bfec"/>
    <path id="Exclusion_13" data-name="Exclusion 13" d="M25.165,55.857a33.835,33.835,0,0,1-9.022-1.109A20.753,20.753,0,0,1,9.182,51.4a18.95,18.95,0,0,1-4.949-5.615,27.458,27.458,0,0,1-2.987-7.913,42.894,42.894,0,0,1-.92-15.336,29.73,29.73,0,0,1,5.92-14.2,21.486,21.486,0,0,1,7.391-6.248,19.014,19.014,0,0,1,17.1-.109,21.508,21.508,0,0,1,7.31,5.937,30.036,30.036,0,0,1,5.937,14.471,37.425,37.425,0,0,1,.281,8.319,35.088,35.088,0,0,1-1.6,8.161c-2.861,8.766-8.893,14.8-16.986,16.989ZM22.4,8.13a16.366,16.366,0,0,0-3.325.365c-5.811,1.222-9.561,6.247-10.561,14.15a39.542,39.542,0,0,0,.451,13.9C10.446,43.1,15.323,47.98,20.826,48.4c.271.021.548.032.823.032,5.324,0,10.515-3.911,12.917-9.732,2.753-6.665,2.76-13.6.02-21.21C31.642,11.193,27.656,8.129,22.4,8.13Z" transform="translate(-5153.846 1142.416)" fill="#38bfec"/>
    <path id="Path_82" data-name="Path 82" d="M1570.17,1844c.01-8.3-.16-15.61.08-22.91.17-4.92,3.45-6.62,6.87-3.12,2.22,2.27,2.87,2.08,5.23.83,12.07-6.39,22.98-1.6,25.31,11.74,2.13,12.12.59,24.51.79,36.79.04,2.65-1.71,3.24-3.98,3.13-2.63-.13-3.21-1.79-3.2-4.03.01-7.3-.05-14.61,0-21.91a41.747,41.747,0,0,0-1.19-11.85c-1.7-5.92-5.17-8.76-10.53-8.81-5.27-.05-9.11,2.78-10.72,8.59a35.409,35.409,0,0,0-.96,8.86c-.13,7.97-.1,15.94-.04,23.9.02,2.87-.06,5.37-3.99,5.28-4.08-.09-3.66-2.93-3.66-5.58C1570.18,1858.27,1570.17,1851.62,1570.17,1844Z" transform="translate(-7615 -673)" fill="#207fb5"/>
    <path id="Path_83" data-name="Path 83" d="M2549.68,1870.6c-4.59.02-4.68-2.71-4.68-5.5-.01-7.66,0-15.33-.04-22.99-.01-4.01-.12-8.04-1.85-11.75-1.8-3.88-4.65-6.46-9.23-6.46-4.82-.01-8.23,2.08-10.22,6.56a25.51,25.51,0,0,0-1.81,10.74c.01,8.33-.06,16.66,0,24.98.02,2.76-.79,4.5-3.89,4.49-3.14-.01-3.83-1.86-3.82-4.56.05-14.99.01-29.98.05-44.97,0-2,.01-4.2,2.64-4.65,2.01-.33,4.16-.36,4.84,2.2.95,3.61,2.31,1.54,3.98.55,11.56-6.89,22.71-3.19,25.57,9.49,3.01,13.35,2,27.08.72,40.67C2551.9,1869.82,2550.95,1870.15,2549.68,1870.6Z" transform="translate(-7615 -673)" fill="#38bfec"/>
    <path id="Path_84" data-name="Path 84" d="M565.354,1478.55c14.413-.87,22.636,5.16,23.4,16.38a18.123,18.123,0,0,1-12.128,18.66,18.395,18.395,0,0,1-19.495-29.95A20.434,20.434,0,0,1,565.354,1478.55Z" transform="translate(-7615 -673)" fill="#1577b0"/>
    <path id="Path_85" data-name="Path 85" d="M2159.44,1850.45c-4.56-3.11-9.33-3.63-13.6-5.45-7.42-3.17-10.64-9.22-8.89-16.75a16.2,16.2,0,0,1,16.81-12.77,15.4,15.4,0,0,1,14.85,13.61c.15,1.37.31,2.83-1.04,3.53a5.051,5.051,0,0,1-4.8-.12c-2.28-1.23-2.26-3.97-3.66-5.79-2.31-2.98-5.36-3.79-8.89-3.01-3.35.74-4.99,3.15-5.44,6.36a7.215,7.215,0,0,0,4.38,8.16c3.01,1.34,6.27,2.14,9.4,3.25,8.35,2.96,12.06,8.53,11.13,16.62-.85,7.34-7.04,12.93-15.02,13.57-8.4.66-15.04-4-17.14-12.13-.48-1.85-1.52-4.14,1.22-5.01,2.24-.72,4.68-.9,5.96,1.91a13.687,13.687,0,0,0,.77,1.84c3.58,5.52,7.76,7.08,12.31,4.64C2161.8,1860.77,2162.34,1857.89,2159.44,1850.45Z" transform="translate(-7615 -673)" fill="#38bfec"/>
    <path id="Path_86" data-name="Path 86" d="M513.882,1851.98c-8.869-11.99-7.274-23.8,3.328-29.34a17.63,17.63,0,0,1,21.069,3.39,17.277,17.277,0,0,1,2.816,21.09,18.025,18.025,0,0,1-19.508,8.75A18.721,18.721,0,0,1,513.882,1851.98Z" transform="translate(-7615 -673)" fill="#2ab8e9"/>
    <path id="Path_87" data-name="Path 87" d="M806.922,1886.05c-9.42.64-15.508-3.31-18.716-11.22a17.39,17.39,0,0,1,8.68-21.97,17.685,17.685,0,0,1,22.668,6.79,17.228,17.228,0,0,1-4.722,23.07C812.719,1884.21,810.042,1884.9,806.922,1886.05Z" transform="translate(-7615 -673)" fill="#1577b0"/>
    <path id="Path_88" data-name="Path 88" d="M719.437,1208.59c12.885-.59,21.062,5.76,22.081,16.49,1,10.5-5.708,18.13-18.941,20.54-9.638-1.56-15.165-6.48-16.534-15.52-1.253-8.28.92-15.1,9.322-19.87.518-.61.57-.42.472-.42A18.045,18.045,0,0,1,719.437,1208.59Z" transform="translate(-7615 -673)" fill="#2abaeb"/>
    <path id="Path_89" data-name="Path 89" d="M651.812,1318.93c.666,5.22-.032,9.39-2.559,13.16a17.206,17.206,0,1,1-26.943-21.24,17.4,17.4,0,0,1,24.943-.39A17.734,17.734,0,0,1,651.812,1318.93Z" transform="translate(-7615 -673)" fill="#229bd5"/>
    <path id="Path_90" data-name="Path 90" d="M2197.69,1822.93c-6.01.61-8.63,2.61-8.29,8.9.58,10.93.14,21.91.16,32.88.01,3.11.2,6.22-4.37,5.99-3.93-.19-3.74-3.01-3.75-5.7q-.015-14.955-.01-29.9c0-1.99-.35-4.05.02-5.96.95-4.92-9.09-6.9-4.23-11.27,3.9-3.51,3.99-7.1,4.82-11.09,1.17-5.61,3.78-9.91,9.89-11.12,1.92-.37,4.32-1.34,5.35.9,1.16,2.51,1.11,5.34-2.32,6.48-3.19,1.06-4.97,3.11-5.22,6.5-.26,3.48-.57,6.87,4.59,6.71C2198.91,1816.11,2198.83,1819.08,2197.69,1822.93Z" transform="translate(-7615 -673)" fill="#38bfec"/>
    <path id="Path_91" data-name="Path 91" d="M1842.4,1827.23c-5.31-5.4-5.31-5.4-.87-11.91,1.65-2.41.91-5.15,1-7.75.1-2.65.78-4.57,3.87-4.61,2.95-.04,4.32,1.53,4.15,4.32-.34,5.59.37,9.98,7.77,9.14,2.36-.26,3.37,1.66,3.29,3.98-.08,2.49-1.59,3.73-3.83,3.52-6.89-.66-7.4,3.45-7.21,8.74.26,7.3.12,14.62.06,21.93-.04,4.38.64,8.09,6.19,8.19,3.02.06,5.21.94,4.92,4.6-.32,4.12-3.44,3.34-5.93,3.37-8.59.1-12.58-3.45-13.05-12.77C1842.26,1848.03,1842.56,1838.05,1842.4,1827.23Z" transform="translate(-7615 -673)" fill="#38bfec"/>
    <path id="Path_92" data-name="Path 92" d="M691.676,1900.43c-.55-13.69,6.653-21.61,17.424-20.04a15.887,15.887,0,0,1,13.671,13.71,15.591,15.591,0,0,1-8.63,16.39,15.389,15.389,0,0,1-18.975-3.34A13.927,13.927,0,0,1,691.676,1900.43Z" transform="translate(-7615 -673)" fill="#229bd5"/>
    <path id="Path_93" data-name="Path 93" d="M585.785,1428.06c7.566-10.63,15.71-12.6,23.792-6.41a15.031,15.031,0,0,1,5.2,16.95,15.894,15.894,0,0,1-14.237,10.81,15.656,15.656,0,0,1-14.815-9.92A14.742,14.742,0,0,1,585.785,1428.06Z" transform="translate(-7615 -673)" fill="#1577b0"/>
    <path id="Path_94" data-name="Path 94" d="M2419.89,1853.53c-.01-7.92.03-14.9-.03-21.89-.03-3.23.47-6.37-3.82-8.15-2.71-1.13-2.95-5.42-.26-6.43,4.93-1.84,4.06-5.36,4.09-8.85.02-2.96.46-5.41,4.25-5.19,3.21.18,3.68,2.47,3.46,4.93-.5,5.41.41,9.32,7.28,8.37,2.33-.32,3.67,1.04,3.76,3.5.11,2.94-1.25,4.49-4.16,4.15-6.17-.72-7.1,2.67-6.91,7.79.29,7.64.15,15.3.07,22.95-.04,4.47.82,8.06,6.32,8.08,3.25.01,5.09,1.38,4.69,4.83-.48,4.07-3.72,3.14-6.18,3.11C2423.31,1870.62,2420.45,1866.82,2419.89,1853.53Z" transform="translate(-7615 -673)" fill="#38bfec"/>
    <path id="Path_95" data-name="Path 95" d="M1976.13,1845.97c0-10.62-.2-20.25.07-29.86.13-4.78-1.59-6.48-6.34-6.35-2.86.08-7.57,1.79-7.68-3.47-.13-6.01,5-3.94,8.15-4.04,7.62-.26,15.26-.08,22.89-.05,2.51,0,4.63.5,4.69,3.7.06,3.14-1.85,3.76-4.45,3.98-2.89.24-6.38-1.23-8.51,1.21-2.31,2.65-1.04,6.37-1.07,9.6-.11,12.94-.05,25.88-.05,38.82,0,1.99-.06,3.99.01,5.98.1,2.95-.35,5.34-4.16,5.18-3.24-.13-3.56-2.28-3.55-4.79C1976.15,1859.57,1976.13,1853.27,1976.13,1845.97Z" transform="translate(-7615 -673)" fill="#38bfec"/>
    <path id="Path_96" data-name="Path 96" d="M877.7,1888.78c-12.565-2.49-17.9-10.27-14.113-19.45,2.5-6.07,7.851-9.6,14.014-9.25a14.527,14.527,0,0,1,13.165,10.54c1.763,5.78-.547,12-5.815,15.75C882.991,1887.77,880.752,1888.34,877.7,1888.78Z" transform="translate(-7615 -673)" fill="#1577b0"/>
    <path id="Path_97" data-name="Path 97" d="M807.971,1241.67c-10.656-2.92-14.627-7.54-14.158-15.55a13.935,13.935,0,0,1,11.359-13.31,14.516,14.516,0,0,1,11.809,25.66A16.585,16.585,0,0,1,807.971,1241.67Z" transform="translate(-7615 -673)" fill="#2ab8e9"/>
    <path id="Path_98" data-name="Path 98" d="M939.389,1196.64c10.986.12,16.981,4.65,18.2,13.16,1.247,8.68-3.7,14.93-15.04,17.97-2.212-1.17-4-.6-6.133-1.35-.541-.32-.419-.28-.476-.25-9.93-11.2-10.334-14.54-2.591-25.72.5-.63.621-.6.568-.57a6.087,6.087,0,0,0,1.744-1.65c.288-.4.331-.26.265-.29A9.439,9.439,0,0,1,939.389,1196.64Z" transform="translate(-7615 -673)" fill="#70cff5"/>
    <path id="Path_99" data-name="Path 99" d="M406.708,1799.98c-9.308-4.31-12.394-8.85-11.42-15.73a13.743,13.743,0,0,1,13.326-12.23c7.078-.21,13.864,5.1,15,11.76a13.809,13.809,0,0,1-10.233,15.84C411.529,1800.15,409.465,1799.94,406.708,1799.98Z" transform="translate(-7615 -673)" fill="#70cff5"/>
    <path id="Path_100" data-name="Path 100" d="M2275.49,1823.19c-10.48,2.69-13,9.82-12.79,19.04.19,7.66.02,15.32.02,22.98,0,2.8-.06,5.52-4.03,5.34-3.32-.15-3.44-2.5-3.44-4.94,0-14.99-.1-29.97.08-44.96.05-4.03,3.22-6.1,5.74-3.61,3.23,3.2,4.99,2.14,8.15.42C2274.13,1814.77,2274.77,1815.48,2275.49,1823.19Z" transform="translate(-7615 -673)" fill="#2abaeb"/>
    <path id="Path_101" data-name="Path 101" d="M2021.52,1817.13c2.91-.94,5.54-2.06,6.1,1.52.4,2.52,1.11,5.96-2.58,6.52-9.47,1.46-10.03,8.52-10.23,15.7-.23,8.32-.1,16.65-.1,24.98,0,2.56-.43,4.7-3.67,4.73-3.19.02-3.8-1.98-3.79-4.62.02-14.99-.13-29.98.08-44.97.07-5.04,2.72-6.44,6.91-2.81C2017.64,1821.14,2018.76,1818.41,2021.52,1817.13Z" transform="translate(-7615 -673)" fill="#2abaeb"/>
    <path id="Path_102" data-name="Path 102" d="M1524.39,1870.27c-2.44-1.28-2.2-3-2.21-4.61-.01-14.24-.04-28.48.03-42.72.01-2.16-.85-4.92,1.83-6.11,2.24-1,4.47-.81,5.81,1.91,1.62,3.27,3.03.35,4.5-.3,2.71-1.2,5.86-5.24,8.07-.29,1.52,3.4.73,6.89-4.55,7.79-6.49,1.11-7.75,6.64-7.9,12.16-.25,8.93-.2,17.87-.13,26.81C1529.87,1868.26,1529.55,1870.98,1524.39,1870.27Z" transform="translate(-7615 -673)" fill="#207fb5"/>
    <path id="Path_103" data-name="Path 103" d="M1922.15,1822.06c.01-7.31.05-13.64.01-19.96-.02-2.76.92-4.47,3.99-4.41,3.2.07,3.68,2.13,3.68,4.71q-.03,31.965.01,63.92c.01,2.82-.98,4.41-4.01,4.35-3.2-.06-3.69-2.08-3.69-4.68C1922.17,1851.68,1922.15,1837.36,1922.15,1822.06Z" transform="translate(-7615 -673)" fill="#38bfec"/>
    <path id="Path_104" data-name="Path 104" d="M716.489,1284.09c2.6,6.54,1.532,11.73-3.142,15.93-4.063,3.65-11.177,3.94-15.674.9a13.438,13.438,0,0,1-5.028-14.86,13.089,13.089,0,0,1,23.844-1.97Z" transform="translate(-7615 -673)" fill="#229bd5"/>
    <path id="Path_105" data-name="Path 105" d="M587.945,1909.94a12.739,12.739,0,0,1-6.526-5.31,12.777,12.777,0,1,1,22.714-11.44c2.935,7.04-1.055,14.86-8.682,17.05C593.156,1910.9,590.893,1910.7,587.945,1909.94Z" transform="translate(-7615 -673)" fill="#2ab8e9"/>
    <path id="Path_106" data-name="Path 106" d="M1551.49,1857.56c0-11.57-.01-22.2.01-32.83a47.14,47.14,0,0,1,.28-5.95,2.616,2.616,0,0,1,2.76-2.29c1.86-.13,3.32.39,3.7,2.38a21.674,21.674,0,0,1,.23,3.96q.03,20.925,0,41.85a29.7,29.7,0,0,1-.12,2.98c-.21,2.09-1.64,2.62-3.46,2.6-1.88-.01-3.23-.77-3.3-2.8C1551.48,1864.48,1551.52,1861.49,1551.49,1857.56Z" transform="translate(-7615 -673)" fill="#0d74b0"/>
    <path id="Path_107" data-name="Path 107" d="M642.91,1392.23a11.426,11.426,0,0,1-7.747-5.23,11.785,11.785,0,0,1,3.264-15.9,11.647,11.647,0,0,1,16.483,3.65,11.765,11.765,0,0,1-3.718,15.78C648.859,1392.09,646.307,1392.5,642.91,1392.23Z" transform="translate(-7615 -673)" fill="#1577b0"/>
    <path id="Path_108" data-name="Path 108" d="M773.961,1914.03c1.766-2.02,3-3.76,4.678-4.62a11.366,11.366,0,1,1,9.186,20.71c-6.436,2.26-12.68-1.05-14.881-7.72C772.046,1919.67,772.5,1917.2,773.961,1914.03Z" transform="translate(-7615 -673)" fill="#229bd5"/>
    <path id="Path_109" data-name="Path 109" d="M1824.33,1816.66c4.32-.6,5.5,1.24,5.5,4.47q-.045,22.41.01,44.83c.01,2.57-.43,4.67-3.63,4.7-2.24.01-4.08-.71-3.98-3.28C1822.9,1850.57,1820.43,1833.68,1824.33,1816.66Z" transform="translate(-7615 -673)" fill="#38bfec"/>
    <path id="Path_110" data-name="Path 110" d="M1757.74,1865.22c-.03,3.81-1.47,5.17-4.37,4.92-2.62-.24-3.09-2.13-3.1-4.25q-.03-22.47-.01-44.95c0-2.62.76-4.6,3.94-4.46,3.26.14,3.53,2.4,3.53,4.87C1757.74,1835.67,1757.75,1849.98,1757.74,1865.22Z" transform="translate(-7615 -673)" fill="#2abaeb"/>
    <path id="Path_111" data-name="Path 111" d="M942.873,1855.38a8.789,8.789,0,0,1,6.264-1.57c6.738.76,10.712,6.08,9.337,12.4a10.245,10.245,0,0,1-12.843,7.65c-5.984-1.81-8.872-8.09-6.329-14.23C939.9,1858.18,941.28,1857.06,942.873,1855.38Z" transform="translate(-7615 -673)" fill="#1577b0"/>
    <path id="Path_112" data-name="Path 112" d="M491.105,1216.1c-3.1,3.59-8.1,5.43-11.81,9.38-10.36,11.02-11.759,33.33,6.319,44.3a36.436,36.436,0,0,0,11.319,4.99c-15.809,2.25-28.982-13.14-30.4-25.92C464.813,1233.31,474.442,1219.83,491.105,1216.1Z" transform="translate(-7615 -673)" fill="#69b1d1"/>
    <path id="Path_113" data-name="Path 113" d="M571.168,1164.03c-5.139,4.17-11.139,7.89-15.05,14.55-6.474,11.01-4.329,22.52,2.814,31.28a49.027,49.027,0,0,0,10.71,9.76c-11.23-1.45-19.627-10.1-21.575-22-2.087-12.74,3.881-25.41,14.786-31.31A15.607,15.607,0,0,1,571.168,1164.03Z" transform="translate(-7615 -673)" fill="#69b1d1"/>
    <path id="Path_114" data-name="Path 114" d="M2445.62,1844c.01-8.27-.01-15.55.05-22.83.02-2.43.3-4.83,3.66-4.59,2.66.19,2.96,2.25,2.97,4.28q.045,22.335.01,44.67c0,2.45-.31,4.77-3.65,4.54-2.69-.18-2.96-2.21-2.98-4.23C2445.62,1858.89,2445.64,1851.94,2445.62,1844Z" transform="translate(-7615 -673)" fill="#2abaeb"/>
    <path id="Path_115" data-name="Path 115" d="M419.2,1289.72c-.223,3.68-4.1,4.25-6.256,6.68-12.355,13.99-8,37.05,5.578,43.95,1.12.57,1.947,1.72,3.176,3.23-12.1-2.51-20-11.88-21.137-24.74C399.455,1306.38,406.452,1294.99,419.2,1289.72Z" transform="translate(-7615 -673)" fill="#69b1d1"/>
    <path id="Path_116" data-name="Path 116" d="M369.182,1377.7c-.663,4-4.553,5.93-6.667,9.33a28.251,28.251,0,0,0,8.635,38.55c1.924,1.28,4.045,2.27,6.469,3.94a26,26,0,0,1-23.2-21.2C352.01,1395.55,357.751,1381.38,369.182,1377.7Z" transform="translate(-7615 -673)" fill="#69b1d1"/>
    <path id="Path_117" data-name="Path 117" d="M1023.31,1277.21c-.99,2.63-2.21,4.24-3.99,5.23-4.65,2.59-9.55,1.31-12.12-3.04a8.864,8.864,0,0,1,2.38-11.6c3.92-2.91,9.16-2.04,12.36,2.07C1023.47,1271.84,1023.79,1274.09,1023.31,1277.21Z" transform="translate(-7615 -673)" fill="#70cff5"/>
    <path id="Path_118" data-name="Path 118" d="M555.251,1267.85a2.817,2.817,0,0,1-.735,2.5c-14.022,16.16-12.486,30.04,5.144,43.13-10.348-1.81-17.393-9-19.03-19.31C538.918,1283.39,543.682,1274.4,555.251,1267.85Z" transform="translate(-7615 -673)" fill="#229bd5"/>
    <path id="Path_119" data-name="Path 119" d="M653.268,1137.98a3.876,3.876,0,0,1-.883,4.46c-10.961,11.6-9.635,23.83-1.876,36.38.871,1.41,1.955,2.68,3.175,4.68-9.508-.84-12.09-8.74-13.425-16.39C638.183,1155.19,641.428,1144.77,653.268,1137.98Z" transform="translate(-7615 -673)" fill="#69b1d1"/>
    <path id="Path_120" data-name="Path 120" d="M749.2,1133.74a24.031,24.031,0,0,1-2.967,5.95c-6.475,11.02-5.824,21.21,2,31.4,1.008,1.31,2.149,2.52,3.465,4.43-8.885-2.12-15.057-9.73-15.111-19.7C736.535,1146.53,739.3,1138.24,749.2,1133.74Z" transform="translate(-7615 -673)" fill="#69b1d1"/>
    <path id="Path_121" data-name="Path 121" d="M631.25,1227.84a8.426,8.426,0,0,1-2.092,3.97c-10.864,12.13-10.225,23.49,2.038,34.27,1.229,1.08,2.689,1.89,4.437,3.37-10.027-1.42-16.428-7.59-18.066-17.26C615.856,1242.09,620.273,1233.81,631.25,1227.84Z" transform="translate(-7615 -673)" fill="#229bd5"/>
    <path id="Path_122" data-name="Path 122" d="M884.08,1250.08c1.348-5.55,4.224-8.41,9.433-7.17a7.376,7.376,0,0,1,6.04,8.04,7.2,7.2,0,0,1-6.842,7.31C887.584,1258.78,884.649,1255.99,884.08,1250.08Z" transform="translate(-7615 -673)" fill="#38bfec"/>
    <path id="Path_123" data-name="Path 123" d="M715.16,1209.64a2.767,2.767,0,0,1-.542,2.59c-10.669,13.52-8.607,24.22,6.736,32.79-9.968-.74-15.993-5.66-17.683-14.37C701.938,1221.72,705.245,1215.28,715.16,1209.64Z" transform="translate(-7615 -673)" fill="#229bd5"/>
    <path id="Path_124" data-name="Path 124" d="M845.192,1153.72c.626.43.586.79.4,1.04-9.483,12.88-9.468,21.5,2.109,34.77-8.748-.24-12.063-6.86-13.325-14.26C832.819,1166.14,835.031,1158,845.192,1153.72Z" transform="translate(-7615 -673)" fill="#69b1d1"/>
    <path id="Path_125" data-name="Path 125" d="M784.815,1271c4.394,3.02,5.6,6.4,2.846,10.39a6.378,6.378,0,0,1-7.777,2.54c-3.62-1.26-5.01-4.21-4.316-7.78C776.469,1271.51,779.513,1269.66,784.815,1271Z" transform="translate(-7615 -673)" fill="#229bd5"/>
    <path id="Path_126" data-name="Path 126" d="M702.307,1347.2c-2.223-.7-3.684-1.31-4.573-2.86-1.96-3.42-1.2-6.28,1.8-8.54,2.794-2.1,5.621-1.56,7.9.84,2.668,2.81,2.524,5.98-.106,8.69C706.295,1346.39,704.467,1346.69,702.307,1347.2Z" transform="translate(-7615 -673)" fill="#207fb5"/>
    <path id="Path_127" data-name="Path 127" d="M471.787,1870.13c-1.733,1.01-2.924,1.74-4.168,1.85-4.332.36-7.082-1.64-7.153-6.09-.053-3.38,2-5.56,5.438-5.86,4.187-.36,7.11,1.32,7.461,5.84C473.458,1867.07,472.681,1868.33,471.787,1870.13Z" transform="translate(-7615 -673)" fill="#70cff5"/>
    <path id="Path_128" data-name="Path 128" d="M933.137,1199.66c.716.49.833.88.692,1.12-4.937,8.47-3.922,16.41,2.053,24.68C922.938,1220.49,921.435,1208.93,933.137,1199.66Z" transform="translate(-7615 -673)" fill="#69b1d1"/>
    <path id="Path_129" data-name="Path 129" d="M666.967,1946.15c-2.2-1.68-3.2-3.33-2.959-5.52a5.185,5.185,0,0,1,4.233-4.9c3.051-.71,5.135.65,6.486,3.32,1.272,2.52.219,4.55-1.574,6.24C671.595,1946.76,669.647,1947.05,666.967,1946.15Z" transform="translate(-7615 -673)" fill="#2ab8e9"/>
    <path id="Path_130" data-name="Path 130" d="M1558.42,1797.66a6.889,6.889,0,0,1,1.24,2.4c.57,4.04-.19,7.71-5.07,7.58-3.57-.1-4.86-3.38-4.3-6.53C1551.02,1796.92,1553.32,1794.53,1558.42,1797.66Z" transform="translate(-7615 -673)" fill="#207fb5"/>
    <path id="Path_131" data-name="Path 131" d="M2448.36,1807.68a3.944,3.944,0,0,1-1.6-.68c-3.57-3.32-3.77-6.92-.18-10.14,1.94-1.73,4.38-1.14,6.07.98C2455.15,1800.98,2453.99,1804.18,2448.36,1807.68Z" transform="translate(-7615 -673)" fill="#38bfec"/>
    <path id="Path_132" data-name="Path 132" d="M866.147,1921.1c2.157,1.81,2.688,3.58,2.069,5.65a4.552,4.552,0,0,1-4.19,3.5,4.92,4.92,0,0,1-3.818-8.62C861.78,1920.12,863.627,1919.95,866.147,1921.1Z" transform="translate(-7615 -673)" fill="#229bd5"/>
    <path id="Path_133" data-name="Path 133" d="M1830.18,1804.65c-2.51,3.65-5.13,4.31-7.58,1.14a6.2,6.2,0,0,1,.39-8.28c1.8-2.09,4.24-2.03,6.12-.02C1830.77,1799.27,1831.23,1801.59,1830.18,1804.65Z" transform="translate(-7615 -673)" fill="#2abaeb"/>
    <path id="Path_134" data-name="Path 134" d="M1749.51,1800.58c1.43-4.03,3.56-5.77,7-3.58,2.67,1.7,2.97,6.28.91,8.95a3.883,3.883,0,0,1-4.35,1.63C1749.97,1806.65,1749.36,1804.09,1749.51,1800.58Z" transform="translate(-7615 -673)" fill="#2abaeb"/>
    <path id="Path_135" data-name="Path 135" d="M1014.38,1834.16c2.36-.23,3.82.35,4.87,1.73a4.17,4.17,0,0,1-.04,5.36,4.293,4.293,0,0,1-5.19,1.47,4.1,4.1,0,0,1-2.86-4.5C1011.27,1836.51,1012.24,1835.22,1014.38,1834.16Z" transform="translate(-7615 -673)" fill="#207fb5"/>
    <path id="Path_136" data-name="Path 136" d="M752.14,1176.77c3.06-1.25,5.84.2,9.069,2.15C758.28,1180.19,755.232,1179.33,752.14,1176.77Z" transform="translate(-7615 -673)" fill="#69b1d1"/>
    <path id="Path_137" data-name="Path 137" d="M757.272,1130.01c-.985,2.29-3.453,3.2-6.735,3.87C750.639,1130.08,753.872,1130.51,757.272,1130.01Z" transform="translate(-7615 -673)" fill="#69b1d1"/>
    <path id="Path_138" data-name="Path 138" d="M653.922,1184.85c2.867-.91,5.112.64,7.717,2.75C659.009,1188.28,656.1,1188.13,653.922,1184.85Z" transform="translate(-7615 -673)" fill="#69b1d1"/>
    <path id="Path_139" data-name="Path 139" d="M375.185,1374.34c-.392,1.97-1.844,3.33-4.8,3.48C370.271,1375.16,372.382,1374.71,375.185,1374.34Z" transform="translate(-7615 -673)" fill="#69b1d1"/>
    <path id="Path_140" data-name="Path 140" d="M561.923,1314.55a22.043,22.043,0,0,1,5.91-.35C566.816,1315.86,564.654,1315.58,561.923,1314.55Z" transform="translate(-7615 -673)" fill="#229bd5"/>
    <path id="Path_141" data-name="Path 141" d="M659.3,1135.73c-.295,2.06-2.1,2.28-4.726,2.24C655.019,1136.28,656.769,1135.88,659.3,1135.73Z" transform="translate(-7615 -673)" fill="#69b1d1"/>
    <path id="Path_142" data-name="Path 142" d="M422.247,1344.61a10.134,10.134,0,0,1,5.119.66C426.03,1346.01,424.294,1346,422.247,1344.61Z" transform="translate(-7615 -673)" fill="#69b1d1"/>
    <path id="Path_143" data-name="Path 143" d="M662.289,1188.51a10.813,10.813,0,0,1,4.8.37C665.918,1189.75,664.3,1189.72,662.289,1188.51Z" transform="translate(-7615 -673)" fill="#69b1d1"/>
    <path id="Path_144" data-name="Path 144" d="M936.257,1226.65a9.642,9.642,0,0,1,5.114.56C940.032,1228.05,938.29,1228.08,936.257,1226.65Z" transform="translate(-7615 -673)" fill="#69b1d1"/>
    <path id="Path_145" data-name="Path 145" d="M635.313,1226.32a6.093,6.093,0,0,1-2.919,1.57A6.093,6.093,0,0,1,635.313,1226.32Z" transform="translate(-7615 -673)" fill="#229bd5"/>
    <path id="Path_146" data-name="Path 146" d="M570.159,1220.56a4.845,4.845,0,0,1,3.212.53A4.909,4.909,0,0,1,570.159,1220.56Z" transform="translate(-7615 -673)" fill="#69b1d1"/>
    <path id="Path_147" data-name="Path 147" d="M719.312,1208.2c-.137,1.11-1.145,1.61-2.98,1.63C716.295,1208.49,717.465,1208.24,719.312,1208.2Z" transform="translate(-7615 -673)" fill="#229bd5"/>
    <path id="Path_148" data-name="Path 148" d="M663.186,1134.37a5.6,5.6,0,0,1-2.8,1.51C660.389,1134.72,661.429,1134.37,663.186,1134.37Z" transform="translate(-7615 -673)" fill="#69b1d1"/>
    <path id="Path_149" data-name="Path 149" d="M939.28,1196.3a5.463,5.463,0,0,1-2.847,1.61C936.433,1196.72,937.476,1196.32,939.28,1196.3Z" transform="translate(-7615 -673)" fill="#69b1d1"/>
    <path id="Path_150" data-name="Path 150" d="M848.139,1190.68c.883-.28,2.035,0,3.546.78A4.912,4.912,0,0,1,848.139,1190.68Z" transform="translate(-7615 -673)" fill="#69b1d1"/>
    <path id="Path_151" data-name="Path 151" d="M559.32,1266.27a6.062,6.062,0,0,1-2.933,1.61C556.459,1266.78,557.531,1266.39,559.32,1266.27Z" transform="translate(-7615 -673)" fill="#229bd5"/>
    <path id="Path_152" data-name="Path 152" d="M1478.69,1512.07c.07-1.39,1.41-1.87,3.73-1.96C1482.32,1511.5,1480.98,1511.95,1478.69,1512.07Z" transform="translate(-7615 -673)" fill="#0877a8"/>
    <path id="Path_153" data-name="Path 153" d="M849.328,1151.75c.088,1.27-.856,1.97-2.82,2.13C846.145,1152.3,847.37,1151.95,849.328,1151.75Z" transform="translate(-7615 -673)" fill="#69b1d1"/>
    <path id="Path_154" data-name="Path 154" d="M853.177,1150.46a5.485,5.485,0,0,1-2.8,1.43C850.394,1150.73,851.422,1150.39,853.177,1150.46Z" transform="translate(-7615 -673)" fill="#69b1d1"/>
    <path id="Path_155" data-name="Path 155" d="M423.4,1287.93c-.028,1.14-1.019,1.77-2.951,1.93C420.344,1288.53,421.5,1288.15,423.4,1287.93Z" transform="translate(-7615 -673)" fill="#69b1d1"/>
    <path id="Path_156" data-name="Path 156" d="M1415.72,1582.37c.21-.11.3.57.24.9C1415.43,1583.38,1415.31,1583.01,1415.72,1582.37Z" transform="translate(-7615 -673)" fill="#05adee"/>
    <path id="Path_157" data-name="Path 157" d="M935.351,1197.9c.239.51-.125,1.09-.985,1.84C934.161,1199.26,934.455,1198.61,935.351,1197.9Z" transform="translate(-7615 -673)" fill="#69b1d1"/>
    <path id="Path_158" data-name="Path 158" d="M638.09,1270.26c.122-.18.48-.16,1.373-.18.535-.04-.219.47-.219.47A2.96,2.96,0,0,1,638.09,1270.26Z" transform="translate(-7615 -673)" fill="#229bd5"/>
    <path id="Path_159" data-name="Path 159" d="M427.161,1286.94c.04.41-.377.66-1.237.87C425.848,1287.42,426.255,1287.09,427.161,1286.94Z" transform="translate(-7615 -673)" fill="#69b1d1"/>
  </g>
</svg>
